IBM Plex Devanagari-Regular.ufo
<glyph name="asterisk" format="1">
  <advance width="450"/>
  <unicode hex="002A"/>
  <outline>
    <contour>
      <point x="225" y="511" type="line" name="hr00"/>
      <point x="307" y="388" type="line"/>
      <point x="363" y="429" type="line"/>
      <point x="272" y="545" type="line"/>
      <point x="414" y="584" type="line"/>
      <point x="392" y="651" type="line"/>
      <point x="254" y="600" type="line"/>
      <point x="260" y="747" type="line"/>
      <point x="190" y="747" type="line"/>
      <point x="196" y="600" type="line"/>
      <point x="58" y="651" type="line"/>
      <point x="36" y="584" type="line"/>
      <point x="178" y="545" type="line"/>
      <point x="87" y="429" type="line"/>
      <point x="143" y="388" type="line"/>
    </contour>
  </outline>
</glyph>
<glyph name="florin" format="1">
  <advance width="485"/>
  <unicode hex="0192"/>
  <outline>
    <contour>
      <point x="-3" y="-134" type="line" name="hr00"/>
      <point x="109" y="-134" type="line" smooth="yes"/>
      <point x="187" y="-134"/>
      <point x="228" y="-85"/>
      <point x="235" y="-16" type="curve" smooth="yes"/>
      <point x="267" y="301" type="line"/>
      <point x="436" y="301" type="line"/>
      <point x="443" y="374" type="line"/>
      <point x="274" y="374" type="line"/>
      <point x="300" y="628" type="line"/>
      <point x="453" y="628" type="line"/>
      <point x="461" y="698" type="line"/>
      <point x="340" y="698" type="line" smooth="yes"/>
      <point x="263" y="698"/>
      <point x="221" y="650"/>
      <point x="214" y="580" type="curve" smooth="yes"/>
      <point x="193" y="374" type="line"/>
      <point x="51" y="374" type="line"/>
      <point x="43" y="301" type="line"/>
      <point x="186" y="301" type="line"/>
      <point x="149" y="-64" type="line"/>
      <point x="4" y="-64" type="line"/>
    </contour>
  </outline>
</glyph>
<glyph name="dvNGA" format="1">
  <advance width="638"/>
  <unicode hex="0919"/>
  <outline>
    <contour>
      <point x="285" y="7" type="curve" smooth="yes"/>
      <point x="417" y="7"/>
      <point x="478" y="74"/>
      <point x="478" y="167" type="curve" smooth="yes"/>
      <point x="478" y="260"/>
      <point x="413" y="315"/>
      <point x="306" y="315" type="curve" smooth="yes"/>
      <point x="239" y="315" type="line" smooth="yes"/>
      <point x="186" y="315"/>
      <point x="159" y="340"/>
      <point x="159" y="376" type="curve" smooth="yes"/>
      <point x="159" y="394" type="line" smooth="yes"/>
      <point x="159" y="425"/>
      <point x="181" y="449"/>
      <point x="236" y="449" type="curve" smooth="yes"/>
      <point x="429" y="449" type="line" name="hr01"/>
      <point x="429" y="637" type="line"/>
      <point x="658" y="637" type="line"/>
      <point x="658" y="698" type="line"/>
      <point x="-20" y="698" type="line"/>
      <point x="-20" y="637" type="line"/>
      <point x="355" y="637" type="line"/>
      <point x="355" y="511" type="line"/>
      <point x="237" y="511" type="line" smooth="yes"/>
      <point x="140" y="511"/>
      <point x="89" y="462"/>
      <point x="89" y="387" type="curve" smooth="yes"/>
      <point x="89" y="299"/>
      <point x="150" y="252"/>
      <point x="250" y="252" type="curve" smooth="yes"/>
      <point x="305" y="252" type="line" smooth="yes"/>
      <point x="367" y="252"/>
      <point x="404" y="224"/>
      <point x="404" y="177" type="curve" smooth="yes" name="hr02"/>
      <point x="404" y="157" type="line" smooth="yes"/>
      <point x="404" y="107"/>
      <point x="366" y="72"/>
      <point x="283" y="72" type="curve" smooth="yes"/>
      <point x="202" y="72"/>
      <point x="142" y="98"/>
      <point x="73" y="171" type="curve"/>
      <point x="29" y="122" type="line"/>
      <point x="97" y="42"/>
      <point x="194" y="7"/>
    </contour>
    <contour>
      <point x="545" y="318" type="curve" smooth="yes"/>
      <point x="582" y="318"/>
      <point x="597" y="336"/>
      <point x="597" y="365" type="curve" smooth="yes"/>
      <point x="597" y="375" type="line" smooth="yes"/>
      <point x="597" y="404"/>
      <point x="582" y="422"/>
      <point x="545" y="422" type="curve" smooth="yes"/>
      <point x="508" y="422"/>
      <point x="493" y="404"/>
      <point x="493" y="375" type="curve" smooth="yes"/>
      <point x="493" y="365" type="line" smooth="yes"/>
      <point x="493" y="336"/>
      <point x="508" y="318"/>
    </contour>
    <contour>
      <point x="314.0" y="10.0" type="move" name="bottom_deva"/>
    </contour>
    <contour>
      <point x="344.0" y="688.0" type="move" name="center_deva"/>
    </contour>
    <contour>
      <point x="429.0" y="688.0" type="move" name="top_deva"/>
    </contour>
  </outline>
</glyph>
<glyph name="dvCA" format="1">
  <advance width="696"/>
  <unicode hex="091A"/>
  <outline>
    <contour>
      <point x="504" y="0" type="line" name="hr00"/>
      <point x="578" y="0" type="line"/>
      <point x="578" y="637" type="line"/>
      <point x="716" y="637" type="line"/>
      <point x="716" y="698" type="line"/>
      <point x="-20" y="698" type="line"/>
      <point x="-20" y="637" type="line"/>
      <point x="504" y="637" type="line"/>
      <point x="504" y="321" type="line" smooth="yes"/>
      <point x="504" y="240"/>
      <point x="431" y="171"/>
      <point x="333" y="171" type="curve" smooth="yes"/>
      <point x="256" y="171"/>
      <point x="208" y="215"/>
      <point x="208" y="289" type="curve" smooth="yes"/>
      <point x="208" y="364"/>
      <point x="253" y="419"/>
      <point x="316" y="419" type="curve" smooth="yes"/>
      <point x="373" y="419" type="line"/>
      <point x="373" y="479" type="line"/>
      <point x="34" y="479" type="line"/>
      <point x="34" y="416" type="line"/>
      <point x="135" y="416" type="line"/>
      <point x="207" y="417" type="line"/>
      <point x="207" y="413" type="line"/>
      <point x="158" y="384"/>
      <point x="135" y="334"/>
      <point x="135" y="278" type="curve" smooth="yes"/>
      <point x="135" y="179"/>
      <point x="211" y="105"/>
      <point x="323" y="105" type="curve" smooth="yes"/>
      <point x="412" y="105"/>
      <point x="468" y="148"/>
      <point x="500" y="196" type="curve"/>
      <point x="504" y="196" type="line"/>
    </contour>
    <contour>
      <point x="578.0" y="0.0" type="move" name="bottom_deva"/>
    </contour>
    <contour>
      <point x="359.0" y="688.0" type="move" name="center_deva"/>
    </contour>
    <contour>
      <point x="578.0" y="688.0" type="move" name="top_deva"/>
    </contour>
  </outline>
</glyph>
<glyph name="dvDDHA" format="1">
  <advance width="572"/>
  <unicode hex="0922"/>
  <outline>
    <contour>
      <point x="349" y="16" type="curve" smooth="yes" name="hr00"/>
      <point x="473" y="16"/>
      <point x="540" y="67"/>
      <point x="540" y="154" type="curve" smooth="yes"/>
      <point x="540" y="234"/>
      <point x="482" y="280"/>
      <point x="400" y="280" type="curve" smooth="yes"/>
      <point x="310" y="280"/>
      <point x="261" y="227"/>
      <point x="261" y="142" type="curve" smooth="yes"/>
      <point x="261" y="82" type="line"/>
      <point x="185" y="102"/>
      <point x="139" y="159"/>
      <point x="139" y="237" type="curve" smooth="yes"/>
      <point x="139" y="274" type="line" smooth="yes"/>
      <point x="139" y="354"/>
      <point x="185" y="427"/>
      <point x="312" y="427" type="curve" smooth="yes"/>
      <point x="463" y="427" type="line"/>
      <point x="463" y="637" type="line"/>
      <point x="592" y="637" type="line"/>
      <point x="592" y="698" type="line"/>
      <point x="-20" y="698" type="line"/>
      <point x="-20" y="637" type="line"/>
      <point x="390" y="637" type="line"/>
      <point x="390" y="490" type="line"/>
      <point x="323" y="490" type="line" smooth="yes"/>
      <point x="145" y="490"/>
      <point x="61" y="395"/>
      <point x="61" y="258" type="curve" smooth="yes"/>
      <point x="61" y="124"/>
      <point x="151" y="16"/>
    </contour>
    <contour>
      <point x="374" y="74" type="curve" smooth="yes"/>
      <point x="327" y="74" type="line"/>
      <point x="327" y="142" type="line" smooth="yes"/>
      <point x="327" y="192"/>
      <point x="350" y="221"/>
      <point x="402" y="221" type="curve" smooth="yes"/>
      <point x="446" y="221"/>
      <point x="474" y="200"/>
      <point x="474" y="155" type="curve" smooth="yes"/>
      <point x="474" y="108"/>
      <point x="439" y="74"/>
    </contour>
    <contour>
      <point x="384.0" y="19.0" type="move" name="bottom_deva"/>
    </contour>
    <contour>
      <point x="336.0" y="688.0" type="move" name="center_deva"/>
    </contour>
    <contour>
      <point x="463.0" y="688.0" type="move" name="top_deva"/>
    </contour>
  </outline>
</glyph>
<glyph name="dvDHA" format="1">
  <advance width="694"/>
  <unicode hex="0927"/>
  <outline>
    <contour>
      <point x="502" y="0" type="line"/>
      <point x="576" y="0" type="line"/>
      <point x="576" y="637" type="line"/>
      <point x="714" y="637" type="line"/>
      <point x="714" y="698" type="line"/>
      <point x="502" y="698" type="line"/>
      <point x="502" y="335" type="line" smooth="yes"/>
      <point x="502" y="244"/>
      <point x="423" y="175"/>
      <point x="303" y="175" type="curve" smooth="yes"/>
      <point x="215" y="175"/>
      <point x="174" y="218"/>
      <point x="174" y="278" type="curve" smooth="yes"/>
      <point x="174" y="341"/>
      <point x="214" y="386"/>
      <point x="297" y="386" type="curve" smooth="yes"/>
      <point x="366" y="386" type="line"/>
      <point x="366" y="450" type="line"/>
      <point x="294" y="450" type="line" smooth="yes"/>
      <point x="201" y="450"/>
      <point x="151" y="494"/>
      <point x="151" y="555" type="curve" smooth="yes" name="hr01"/>
      <point x="151" y="607"/>
      <point x="185" y="640"/>
      <point x="241" y="640" type="curve" smooth="yes"/>
      <point x="271" y="640"/>
      <point x="296" y="631"/>
      <point x="322" y="617" type="curve"/>
      <point x="345" y="668" type="line"/>
      <point x="323" y="684"/>
      <point x="282" y="701"/>
      <point x="235" y="701" type="curve" smooth="yes"/>
      <point x="126" y="701"/>
      <point x="77" y="635"/>
      <point x="77" y="562" type="curve" smooth="yes"/>
      <point x="77" y="484"/>
      <point x="130" y="433"/>
      <point x="204" y="419" type="curve"/>
      <point x="204" y="413" type="line"/>
      <point x="139" y="397"/>
      <point x="96" y="345"/>
      <point x="96" y="273" type="curve" smooth="yes" name="hr02"/>
      <point x="96" y="184"/>
      <point x="165" y="109"/>
      <point x="300" y="109" type="curve" smooth="yes"/>
      <point x="400" y="109"/>
      <point x="465" y="152"/>
      <point x="498" y="198" type="curve"/>
      <point x="502" y="198" type="line"/>
    </contour>
    <contour>
      <point x="576.0" y="0.0" type="move" name="bottom_deva"/>
    </contour>
    <contour>
      <point x="364.0" y="688.0" type="move" name="center_deva"/>
    </contour>
    <contour>
      <point x="576.0" y="688.0" type="move" name="top_deva"/>
    </contour>
  </outline>
</glyph>
<glyph name="dvLA" format="1">
  <advance width="829"/>
  <unicode hex="0932"/>
  <outline>
    <contour>
      <point x="637" y="0" type="line" name="hr00"/>
      <point x="711" y="0" type="line"/>
      <point x="711" y="637" type="line"/>
      <point x="849" y="637" type="line"/>
      <point x="849" y="698" type="line"/>
      <point x="-20" y="698" type="line"/>
      <point x="-20" y="637" type="line"/>
      <point x="637" y="637" type="line"/>
      <point x="637" y="475" type="line"/>
      <point x="639" y="431" type="line"/>
      <point x="634" y="431" type="line"/>
      <point x="611" y="460"/>
      <point x="582" y="480"/>
      <point x="530" y="480" type="curve" smooth="yes"/>
      <point x="455" y="480"/>
      <point x="411" y="424"/>
      <point x="395" y="360" type="curve"/>
      <point x="390" y="360" type="line"/>
      <point x="373" y="425"/>
      <point x="321" y="481"/>
      <point x="236" y="481" type="curve" smooth="yes"/>
      <point x="137" y="481"/>
      <point x="63" y="408"/>
      <point x="63" y="271" type="curve" smooth="yes"/>
      <point x="63" y="108"/>
      <point x="156" y="24"/>
      <point x="294" y="5" type="curve"/>
      <point x="310" y="68" type="line"/>
      <point x="196" y="89"/>
      <point x="137" y="143"/>
      <point x="137" y="248" type="curve" smooth="yes"/>
      <point x="137" y="283" type="line" smooth="yes"/>
      <point x="137" y="363"/>
      <point x="176" y="412"/>
      <point x="243" y="412" type="curve" smooth="yes"/>
      <point x="314" y="412"/>
      <point x="356" y="361"/>
      <point x="356" y="283" type="curve" smooth="yes"/>
      <point x="356" y="177" type="line"/>
      <point x="429" y="177" type="line"/>
      <point x="429" y="280" type="line" smooth="yes"/>
      <point x="429" y="355"/>
      <point x="467" y="414"/>
      <point x="536" y="414" type="curve" smooth="yes"/>
      <point x="599" y="414"/>
      <point x="637" y="373"/>
      <point x="637" y="318" type="curve" smooth="yes"/>
    </contour>
    <contour>
      <point x="711.0" y="0.0" type="move" name="bottom_deva"/>
    </contour>
    <contour>
      <point x="421.0" y="688.0" type="move" name="center_deva"/>
    </contour>
    <contour>
      <point x="711.0" y="688.0" type="move" name="top_deva"/>
    </contour>
  </outline>
</glyph>
<glyph name="dvNukta" format="1">
  <advance width="0"/>
  <unicode hex="093C"/>
  <outline>
    <contour>
      <point x="124" y="-25" type="curve" smooth="yes" name="hr00"/>
      <point x="161" y="-25"/>
      <point x="176" y="-7"/>
      <point x="176" y="22" type="curve" smooth="yes"/>
      <point x="176" y="32" type="line" smooth="yes"/>
      <point x="176" y="61"/>
      <point x="161" y="79"/>
      <point x="124" y="79" type="curve" smooth="yes"/>
      <point x="87" y="79"/>
      <point x="72" y="61"/>
      <point x="72" y="32" type="curve" smooth="yes"/>
      <point x="72" y="22" type="line" smooth="yes"/>
      <point x="72" y="-7"/>
      <point x="87" y="-25"/>
    </contour>
  </outline>
</glyph>
<glyph name="dvmEshort" format="1">
  <advance width="0"/>
  <unicode hex="0946"/>
  <outline>
    <contour>
      <point x="-193" y="655" type="line" name="hr00"/>
      <point x="-123" y="655" type="line"/>
      <point x="-123" y="794" type="line" smooth="yes"/>
      <point x="-123" y="847"/>
      <point x="-145" y="874"/>
      <point x="-202" y="874" type="curve" smooth="yes"/>
      <point x="-326" y="874" type="line" smooth="yes"/>
      <point x="-386" y="874"/>
      <point x="-412" y="887"/>
      <point x="-452" y="934" type="curve"/>
      <point x="-495" y="896" type="line"/>
      <point x="-449" y="834"/>
      <point x="-403" y="809"/>
      <point x="-312" y="809" type="curve" smooth="yes"/>
      <point x="-193" y="809" type="line"/>
    </contour>
    <contour>
      <point x="-119.0" y="688.0" type="move" name="_top_deva"/>
    </contour>
  </outline>
</glyph>
<glyph name="dvmE" format="1">
  <advance width="0"/>
  <unicode hex="0947"/>
  <outline>
    <contour>
      <point x="-178" y="669" type="line" name="hr00"/>
      <point x="-123" y="669" type="line"/>
      <point x="-123" y="690" type="line"/>
      <point x="-243" y="905" type="line" smooth="yes"/>
      <point x="-262" y="940"/>
      <point x="-281" y="955"/>
      <point x="-319" y="955" type="curve" smooth="yes"/>
      <point x="-466" y="955" type="line"/>
      <point x="-466" y="887" type="line"/>
      <point x="-306" y="887" type="line"/>
      <point x="-226" y="752" type="line"/>
    </contour>
    <contour>
      <point x="-119.0" y="688.0" type="move" name="_top_deva"/>
    </contour>
  </outline>
</glyph>
<glyph name="dvmOshort" format="1">
  <advance width="310"/>
  <unicode hex="094A"/>
  <outline>
    <contour>
      <point x="118" y="0" type="line" name="hr00"/>
      <point x="192" y="0" type="line"/>
      <point x="192" y="637" type="line"/>
      <point x="330" y="637" type="line"/>
      <point x="330" y="698" type="line"/>
      <point x="188" y="698" type="line"/>
      <point x="188" y="794" type="line" smooth="yes"/>
      <point x="188" y="847"/>
      <point x="166" y="874"/>
      <point x="109" y="874" type="curve" smooth="yes"/>
      <point x="-15" y="874" type="line" smooth="yes"/>
      <point x="-75" y="874"/>
      <point x="-101" y="887"/>
      <point x="-141" y="934" type="curve"/>
      <point x="-184" y="896" type="line"/>
      <point x="-138" y="834"/>
      <point x="-92" y="809"/>
      <point x="-1" y="809" type="curve" smooth="yes"/>
      <point x="118" y="809" type="line"/>
      <point x="118" y="698" type="line"/>
      <point x="-20" y="698" type="line"/>
      <point x="-20" y="637" type="line"/>
      <point x="118" y="637" type="line"/>
    </contour>
    <contour>
      <point x="153.0" y="688.0" type="move" name="center_deva"/>
    </contour>
    <contour>
      <point x="330.0" y="688.0" type="move" name="top_deva"/>
    </contour>
  </outline>
</glyph>
<glyph name="dvGxA" format="1">
  <advance width="621"/>
  <unicode hex="095A"/>
  <outline>
    <component base="dvGA"/>
    <component base="dvNukta" xOffset="47" yOffset="17"/>
    <contour>
      <point x="503.0" y="0.0" type="move" name="bottom_deva"/>
    </contour>
    <contour>
      <point x="327.0" y="688.0" type="move" name="center_deva"/>
    </contour>
    <contour>
      <point x="503.0" y="688.0" type="move" name="top_deva"/>
    </contour>
  </outline>
</glyph>
<glyph name="dvmvL" format="1">
  <advance width="0"/>
  <unicode hex="0962"/>
  <outline>
    <contour>
      <point x="-3" y="-330" type="curve" smooth="yes" name="hr00"/>
      <point x="30" y="-330" type="line"/>
      <point x="30" y="-289" type="line"/>
      <point x="-9" y="-289" type="line" smooth="yes"/>
      <point x="-33" y="-289"/>
      <point x="-42" y="-278"/>
      <point x="-42" y="-267" type="curve" smooth="yes"/>
      <point x="-42" y="-252"/>
      <point x="-36" y="-245"/>
      <point x="-13" y="-227" type="curve" smooth="yes"/>
      <point x="25" y="-197"/>
      <point x="40" y="-175"/>
      <point x="40" y="-131" type="curve" smooth="yes"/>
      <point x="40" y="-81"/>
      <point x="-2" y="-42"/>
      <point x="-61" y="-42" type="curve" smooth="yes"/>
      <point x="-117" y="-42"/>
      <point x="-144" y="-74"/>
      <point x="-154" y="-105" type="curve"/>
      <point x="-157" y="-105" type="line"/>
      <point x="-166" y="-75"/>
      <point x="-197" y="-42"/>
      <point x="-252" y="-42" type="curve" smooth="yes"/>
      <point x="-316" y="-42"/>
      <point x="-358" y="-86"/>
      <point x="-358" y="-155" type="curve" smooth="yes"/>
      <point x="-358" y="-240"/>
      <point x="-305" y="-285"/>
      <point x="-220" y="-296" type="curve"/>
      <point x="-211" y="-251" type="line"/>
      <point x="-277" y="-240"/>
      <point x="-301" y="-212"/>
      <point x="-301" y="-164" type="curve" smooth="yes"/>
      <point x="-301" y="-151" type="line" smooth="yes"/>
      <point x="-301" y="-115"/>
      <point x="-280" y="-89"/>
      <point x="-242" y="-89" type="curve" smooth="yes"/>
      <point x="-204" y="-89"/>
      <point x="-183" y="-115"/>
      <point x="-183" y="-151" type="curve" smooth="yes"/>
      <point x="-183" y="-195" type="line"/>
      <point x="-124" y="-195" type="line"/>
      <point x="-124" y="-153" type="line" smooth="yes"/>
      <point x="-124" y="-118"/>
      <point x="-106" y="-88"/>
      <point x="-65" y="-88" type="curve" smooth="yes"/>
      <point x="-32" y="-88"/>
      <point x="-14" y="-107"/>
      <point x="-14" y="-133" type="curve" smooth="yes"/>
      <point x="-14" y="-162"/>
      <point x="-23" y="-176"/>
      <point x="-52" y="-200" type="curve" smooth="yes"/>
      <point x="-79" y="-223"/>
      <point x="-92" y="-241"/>
      <point x="-92" y="-267" type="curve" smooth="yes"/>
      <point x="-92" y="-300"/>
      <point x="-70" y="-330"/>
    </contour>
    <contour>
      <point x="-118.0" y="0.0" type="move" name="_bottom_deva"/>
    </contour>
  </outline>
</glyph>
<glyph name="dvFour" format="1">
  <advance width="572"/>
  <unicode hex="096A"/>
  <outline>
    <contour>
      <point x="286" y="-5" type="curve" name="hr00"/>
      <point x="401" y="-5"/>
      <point x="466" y="67"/>
      <point x="466" y="165" type="curve" smooth="yes"/>
      <point x="466" y="235"/>
      <point x="429" y="298"/>
      <point x="358" y="378" type="curve" smooth="yes"/>
      <point x="332" y="407" type="line"/>
      <point x="535" y="637" type="line"/>
      <point x="486" y="682" type="line"/>
      <point x="286" y="458" type="line"/>
      <point x="86" y="682" type="line"/>
      <point x="37" y="637" type="line"/>
      <point x="240" y="407" type="line"/>
      <point x="214" y="378" type="line" smooth="yes"/>
      <point x="143" y="298"/>
      <point x="106" y="235"/>
      <point x="106" y="165" type="curve" smooth="yes"/>
      <point x="106" y="67"/>
      <point x="171" y="-5"/>
    </contour>
    <contour>
      <point x="184" y="154" type="curve" smooth="yes"/>
      <point x="184" y="180" type="line" smooth="yes"/>
      <point x="184" y="216"/>
      <point x="205" y="263"/>
      <point x="261" y="327" type="curve" smooth="yes"/>
      <point x="286" y="355" type="line"/>
      <point x="311" y="327" type="line" smooth="yes"/>
      <point x="367" y="263"/>
      <point x="388" y="216"/>
      <point x="388" y="180" type="curve" smooth="yes"/>
      <point x="388" y="154" type="line" smooth="yes"/>
      <point x="388" y="103"/>
      <point x="354" y="57"/>
      <point x="286" y="57" type="curve"/>
      <point x="218" y="57"/>
      <point x="184" y="103"/>
    </contour>
  </outline>
</glyph>
<glyph name="Germandbls" format="1">
  <advance width="700"/>
  <unicode hex="1E9E"/>
  <outline>
    <contour>
      <point x="648" y="196" type="curve" smooth="yes"/>
      <point x="648" y="325"/>
      <point x="562" y="399"/>
      <point x="423" y="401" type="curve"/>
      <point x="423" y="405" type="line"/>
      <point x="604" y="616" type="line"/>
      <point x="604" y="698" type="line"/>
      <point x="93" y="698" type="line"/>
      <point x="93" y="0" type="line"/>
      <point x="177" y="0" type="line"/>
      <point x="177" y="624" type="line"/>
      <point x="519" y="624" type="line"/>
      <point x="334" y="409" type="line"/>
      <point x="334" y="332" type="line"/>
      <point x="428" y="332" type="line"/>
      <point x="512" y="332"/>
      <point x="558" y="285"/>
      <point x="558" y="211" type="curve" smooth="yes"/>
      <point x="558" y="181" type="line" smooth="yes"/>
      <point x="558" y="107"/>
      <point x="512" y="59"/>
      <point x="428" y="59" type="curve" smooth="yes" name="hr01"/>
      <point x="370" y="59"/>
      <point x="322" y="84"/>
      <point x="287" y="130" type="curve"/>
      <point x="229" y="81" type="line"/>
      <point x="275" y="17"/>
      <point x="339" y="-12"/>
      <point x="428" y="-12" type="curve" smooth="yes"/>
      <point x="562" y="-12"/>
      <point x="648" y="65"/>
    </contour>
  </outline>
</glyph>
<glyph name="arrowuprightclock" format="1">
  <advance width="820"/>
  <unicode hex="21BB"/>
  <outline>
    <contour>
      <point x="425" y="698" type="line" name="hr00"/>
      <point x="132" y="698" type="line"/>
      <point x="132" y="630" type="line"/>
      <point x="246" y="630" type="line"/>
      <point x="316" y="635" type="line"/>
      <point x="317" y="632" type="line"/>
      <point x="268" y="592" type="line" smooth="yes"/>
      <point x="188" y="527"/>
      <point x="85" y="450"/>
      <point x="85" y="291" type="curve" smooth="yes"/>
      <point x="85" y="123"/>
      <point x="228" y="-12"/>
      <point x="406" y="-12" type="curve" smooth="yes"/>
      <point x="590" y="-12"/>
      <point x="736" y="119"/>
      <point x="736" y="299" type="curve" smooth="yes"/>
      <point x="736" y="426"/>
      <point x="662" y="531"/>
      <point x="560" y="593" type="curve"/>
      <point x="524" y="542" type="line"/>
      <point x="615" y="484"/>
      <point x="668" y="412"/>
      <point x="668" y="299" type="curve" smooth="yes"/>
      <point x="668" y="148"/>
      <point x="550" y="52"/>
      <point x="406" y="52" type="curve" smooth="yes"/>
      <point x="264" y="52"/>
      <point x="153" y="156"/>
      <point x="153" y="291" type="curve" smooth="yes"/>
      <point x="153" y="414"/>
      <point x="217" y="470"/>
      <point x="307" y="544" type="curve" smooth="yes"/>
      <point x="359" y="587" type="line"/>
      <point x="362" y="586" type="line"/>
      <point x="357" y="519" type="line"/>
      <point x="357" y="405" type="line"/>
      <point x="425" y="405" type="line"/>
    </contour>
  </outline>
</glyph>
<glyph name="dvBH_LA" format="1">
  <advance width="1212"/>
  <outline>
    <contour>
      <point x="1020" y="0" type="line"/>
      <point x="1094" y="0" type="line"/>
      <point x="1094" y="637" type="line"/>
      <point x="1232" y="637" type="line"/>
      <point x="1232" y="698" type="line"/>
      <point x="413" y="698" type="line"/>
      <point x="413" y="637" type="line"/>
      <point x="1020" y="637" type="line"/>
      <point x="1020" y="475" type="line"/>
      <point x="1021" y="431" type="line"/>
      <point x="1017" y="431" type="line"/>
      <point x="994" y="460"/>
      <point x="965" y="480"/>
      <point x="913" y="480" type="curve" smooth="yes"/>
      <point x="838" y="480"/>
      <point x="794" y="424"/>
      <point x="778" y="360" type="curve"/>
      <point x="773" y="360" type="line"/>
      <point x="756" y="425"/>
      <point x="704" y="481"/>
      <point x="619" y="481" type="curve" smooth="yes"/>
      <point x="549" y="481"/>
      <point x="491" y="445"/>
      <point x="464" y="375" type="curve"/>
      <point x="203" y="375" type="line"/>
      <point x="203" y="621" type="line" smooth="yes"/>
      <point x="203" y="673"/>
      <point x="182" y="698"/>
      <point x="125" y="698" type="curve" smooth="yes"/>
      <point x="-20" y="698" type="line"/>
      <point x="-20" y="637" type="line"/>
      <point x="129" y="637" type="line"/>
      <point x="129" y="370" type="line"/>
      <point x="99" y="360"/>
      <point x="83" y="335"/>
      <point x="83" y="298" type="curve" smooth="yes"/>
      <point x="83" y="250"/>
      <point x="110" y="221"/>
      <point x="161" y="221" type="curve" smooth="yes"/>
      <point x="178" y="221"/>
      <point x="193" y="224"/>
      <point x="203" y="229" type="curve"/>
      <point x="203" y="312" type="line"/>
      <point x="448" y="312" type="line"/>
      <point x="446" y="299"/>
      <point x="446" y="285"/>
      <point x="446" y="271" type="curve" smooth="yes"/>
      <point x="446" y="108"/>
      <point x="539" y="24"/>
      <point x="677" y="5" type="curve"/>
      <point x="693" y="68" type="line"/>
      <point x="579" y="89"/>
      <point x="520" y="143"/>
      <point x="520" y="248" type="curve" smooth="yes"/>
      <point x="520" y="283" type="line" smooth="yes"/>
      <point x="520" y="363"/>
      <point x="559" y="412"/>
      <point x="626" y="412" type="curve" smooth="yes" name="hr01"/>
      <point x="697" y="412"/>
      <point x="739" y="361"/>
      <point x="739" y="283" type="curve" smooth="yes"/>
      <point x="739" y="177" type="line"/>
      <point x="812" y="177" type="line"/>
      <point x="812" y="280" type="line" smooth="yes"/>
      <point x="812" y="355"/>
      <point x="850" y="414"/>
      <point x="920" y="414" type="curve" smooth="yes" name="hr02"/>
      <point x="983" y="414"/>
      <point x="1020" y="371"/>
      <point x="1020" y="320" type="curve" smooth="yes"/>
    </contour>
    <contour>
      <point x="1094.0" y="0.0" type="move" name="bottom_deva"/>
    </contour>
    <contour>
      <point x="804.0" y="688.0" type="move" name="center_deva"/>
    </contour>
    <contour>
      <point x="1094.0" y="688.0" type="move" name="top_deva"/>
    </contour>
  </outline>
</glyph>
<glyph name="dvB_BA" format="1">
  <advance width="998"/>
  <outline>
    <contour>
      <point x="-20" y="637" type="line"/>
      <point x="806" y="637" type="line"/>
      <point x="806" y="447" type="line"/>
      <point x="802" y="447" type="line"/>
      <point x="772" y="478"/>
      <point x="718" y="509"/>
      <point x="637" y="509" type="curve" smooth="yes"/>
      <point x="553" y="509"/>
      <point x="494" y="474"/>
      <point x="460" y="421" type="curve"/>
      <point x="455" y="421" type="line"/>
      <point x="419" y="474"/>
      <point x="355" y="507"/>
      <point x="270" y="507" type="curve" smooth="yes" name="hr01"/>
      <point x="139" y="507"/>
      <point x="54" y="422"/>
      <point x="54" y="312" type="curve" smooth="yes"/>
      <point x="54" y="196"/>
      <point x="139" y="113"/>
      <point x="270" y="113" type="curve" smooth="yes"/>
      <point x="356" y="113"/>
      <point x="419" y="145"/>
      <point x="456" y="202" type="curve"/>
      <point x="461" y="202" type="line"/>
      <point x="499" y="146"/>
      <point x="557" y="110"/>
      <point x="635" y="110" type="curve" smooth="yes" name="hr02"/>
      <point x="719" y="110"/>
      <point x="774" y="143"/>
      <point x="802" y="177" type="curve"/>
      <point x="806" y="177" type="line"/>
      <point x="806" y="0" type="line"/>
      <point x="880" y="0" type="line"/>
      <point x="880" y="637" type="line"/>
      <point x="1018" y="637" type="line"/>
      <point x="1018" y="698" type="line"/>
      <point x="-20" y="698" type="line"/>
    </contour>
    <contour>
      <point x="379" y="252" type="line"/>
      <point x="215" y="408" type="line"/>
      <point x="186" y="431" type="line"/>
      <point x="190" y="433" type="line" smooth="yes"/>
      <point x="214" y="445"/>
      <point x="241" y="450"/>
      <point x="273" y="450" type="curve" smooth="yes"/>
      <point x="368" y="450"/>
      <point x="421" y="394"/>
      <point x="421" y="320" type="curve" smooth="yes"/>
      <point x="421" y="300" type="line" smooth="yes"/>
      <point x="421" y="272"/>
      <point x="414" y="248"/>
      <point x="402" y="229" type="curve"/>
    </contour>
    <contour>
      <point x="272" y="170" type="curve" smooth="yes" name="hr03"/>
      <point x="177" y="170"/>
      <point x="124" y="226"/>
      <point x="124" y="300" type="curve" smooth="yes"/>
      <point x="124" y="320" type="line" smooth="yes"/>
      <point x="124" y="353"/>
      <point x="133" y="380"/>
      <point x="150" y="400" type="curve"/>
      <point x="181" y="369" type="line"/>
      <point x="342" y="215" type="line"/>
      <point x="367" y="194" type="line"/>
      <point x="363" y="191"/>
      <point x="359" y="189"/>
      <point x="355" y="187" type="curve" smooth="yes"/>
      <point x="331" y="175"/>
      <point x="304" y="170"/>
    </contour>
    <contour>
      <point x="781" y="227" type="line"/>
      <point x="754" y="254" type="line"/>
      <point x="590" y="410" type="line"/>
      <point x="566" y="429" type="line"/>
      <point x="566" y="432" type="line"/>
      <point x="590" y="445"/>
      <point x="616" y="448"/>
      <point x="645" y="448" type="curve" smooth="yes"/>
      <point x="739" y="448"/>
      <point x="807" y="395"/>
      <point x="807" y="348" type="curve" smooth="yes"/>
      <point x="807" y="282" type="line" smooth="yes"/>
      <point x="807" y="262"/>
      <point x="799" y="243"/>
      <point x="784" y="227" type="curve"/>
    </contour>
    <contour>
      <point x="648" y="173" type="curve" smooth="yes" name="hr04"/>
      <point x="550" y="173"/>
      <point x="499" y="227"/>
      <point x="499" y="302" type="curve" smooth="yes"/>
      <point x="499" y="323" type="line" smooth="yes"/>
      <point x="499" y="353"/>
      <point x="508" y="379"/>
      <point x="526" y="400" type="curve"/>
      <point x="530" y="400" type="line"/>
      <point x="556" y="371" type="line"/>
      <point x="717" y="217" type="line"/>
      <point x="741" y="197" type="line"/>
      <point x="741" y="194" type="line"/>
      <point x="714" y="179"/>
      <point x="685" y="173"/>
    </contour>
    <contour>
      <point x="880.0" y="0.0" type="move" name="bottom_deva"/>
    </contour>
    <contour>
      <point x="666.0" y="688.0" type="move" name="center_deva"/>
    </contour>
    <contour>
      <point x="880.0" y="688.0" type="move" name="top_deva"/>
    </contour>
  </outline>
</glyph>
<glyph name="dvB_DA" format="1">
  <advance width="929"/>
  <outline>
    <contour>
      <point x="-20" y="637" type="line"/>
      <point x="744" y="637" type="line"/>
      <point x="744" y="497" type="line"/>
      <point x="668" y="497" type="line" smooth="yes"/>
      <point x="571" y="497"/>
      <point x="503" y="466"/>
      <point x="462" y="414" type="curve"/>
      <point x="457" y="414" type="line"/>
      <point x="423" y="471"/>
      <point x="360" y="507"/>
      <point x="270" y="507" type="curve" smooth="yes" name="hr01"/>
      <point x="139" y="507"/>
      <point x="54" y="422"/>
      <point x="54" y="312" type="curve" smooth="yes"/>
      <point x="54" y="196"/>
      <point x="139" y="113"/>
      <point x="270" y="113" type="curve" smooth="yes"/>
      <point x="346" y="113"/>
      <point x="405" y="139"/>
      <point x="441" y="184" type="curve"/>
      <point x="446" y="184" type="line"/>
      <point x="484" y="110"/>
      <point x="563" y="66"/>
      <point x="671" y="66" type="curve" smooth="yes" name="hr02"/>
      <point x="702" y="66"/>
      <point x="731" y="69"/>
      <point x="756" y="75" type="curve"/>
      <point x="769" y="36" type="line"/>
      <point x="804" y="-62" type="line"/>
      <point x="863" y="-44" type="line"/>
      <point x="828" y="53" type="line"/>
      <point x="812" y="92" type="line"/>
      <point x="843" y="108"/>
      <point x="855" y="128"/>
      <point x="855" y="156" type="curve" smooth="yes"/>
      <point x="855" y="200"/>
      <point x="830" y="231"/>
      <point x="780" y="231" type="curve" smooth="yes"/>
      <point x="752" y="231"/>
      <point x="727" y="221"/>
      <point x="709" y="209" type="curve"/>
      <point x="733" y="134" type="line"/>
      <point x="718" y="131"/>
      <point x="699" y="128"/>
      <point x="675" y="128" type="curve" smooth="yes"/>
      <point x="557" y="128"/>
      <point x="499" y="186"/>
      <point x="499" y="271" type="curve" smooth="yes"/>
      <point x="499" y="296" type="line" smooth="yes"/>
      <point x="499" y="374"/>
      <point x="546" y="434"/>
      <point x="663" y="434" type="curve" smooth="yes"/>
      <point x="818" y="434" type="line"/>
      <point x="818" y="637" type="line"/>
      <point x="949" y="637" type="line"/>
      <point x="949" y="698" type="line"/>
      <point x="-20" y="698" type="line"/>
    </contour>
    <contour>
      <point x="270" y="170" type="curve" smooth="yes" name="hr03"/>
      <point x="178" y="170"/>
      <point x="124" y="225"/>
      <point x="124" y="302" type="curve" smooth="yes"/>
      <point x="124" y="324" type="line" smooth="yes"/>
      <point x="124" y="353"/>
      <point x="134" y="379"/>
      <point x="151" y="399" type="curve"/>
      <point x="181" y="369" type="line"/>
      <point x="342" y="215" type="line"/>
      <point x="368" y="193" type="line"/>
      <point x="333" y="174"/>
      <point x="303" y="170"/>
    </contour>
    <contour>
      <point x="402" y="228" type="curve"/>
      <point x="379" y="252" type="line"/>
      <point x="215" y="408" type="line"/>
      <point x="187" y="431" type="line"/>
      <point x="214" y="446"/>
      <point x="240" y="450"/>
      <point x="270" y="450" type="curve" smooth="yes"/>
      <point x="368" y="450"/>
      <point x="421" y="394"/>
      <point x="421" y="324" type="curve" smooth="yes"/>
      <point x="421" y="304" type="line" smooth="yes"/>
      <point x="421" y="273"/>
      <point x="414" y="247"/>
    </contour>
    <contour>
      <point x="863.0" y="-49.0" type="move" name="bottom_deva"/>
    </contour>
    <contour>
      <point x="665.0" y="688.0" type="move" name="center_deva"/>
    </contour>
    <contour>
      <point x="818.0" y="688.0" type="move" name="top_deva"/>
    </contour>
  </outline>
</glyph>
<glyph name="dvB_L_YA" format="1">
  <advance width="1579"/>
  <outline>
    <contour>
      <point x="-20" y="637" type="line"/>
      <point x="1140" y="637" type="line"/>
      <point x="1140" y="523" type="line" smooth="yes"/>
      <point x="1140" y="463"/>
      <point x="1119" y="436"/>
      <point x="1067" y="436" type="curve" smooth="yes"/>
      <point x="1000" y="436" type="line"/>
      <point x="972" y="464"/>
      <point x="934" y="480"/>
      <point x="890" y="480" type="curve" smooth="yes" name="hr01"/>
      <point x="811" y="480"/>
      <point x="766" y="424"/>
      <point x="751" y="360" type="curve"/>
      <point x="746" y="360" type="line"/>
      <point x="729" y="425"/>
      <point x="677" y="481"/>
      <point x="592" y="481" type="curve" smooth="yes" name="hr02"/>
      <point x="536" y="481"/>
      <point x="495" y="456"/>
      <point x="465" y="415" type="curve"/>
      <point x="459" y="415" type="line"/>
      <point x="424" y="472"/>
      <point x="358" y="507"/>
      <point x="270" y="507" type="curve" smooth="yes" name="hr03"/>
      <point x="139" y="507"/>
      <point x="54" y="422"/>
      <point x="54" y="312" type="curve" smooth="yes"/>
      <point x="54" y="196"/>
      <point x="139" y="113"/>
      <point x="270" y="113" type="curve" smooth="yes"/>
      <point x="339" y="113"/>
      <point x="392" y="134"/>
      <point x="430" y="169" type="curve"/>
      <point x="436" y="169" type="line"/>
      <point x="470" y="70"/>
      <point x="550" y="20"/>
      <point x="650" y="5" type="curve"/>
      <point x="666" y="68" type="line"/>
      <point x="552" y="89"/>
      <point x="493" y="143"/>
      <point x="493" y="248" type="curve" smooth="yes"/>
      <point x="493" y="283" type="line" smooth="yes"/>
      <point x="493" y="363"/>
      <point x="532" y="412"/>
      <point x="599" y="412" type="curve" smooth="yes" name="hr04"/>
      <point x="670" y="412"/>
      <point x="712" y="361"/>
      <point x="712" y="283" type="curve" smooth="yes"/>
      <point x="712" y="177" type="line"/>
      <point x="785" y="177" type="line"/>
      <point x="785" y="280" type="line" smooth="yes"/>
      <point x="785" y="355"/>
      <point x="823" y="413"/>
      <point x="892" y="413" type="curve" smooth="yes" name="hr05"/>
      <point x="927" y="413"/>
      <point x="953" y="400"/>
      <point x="970" y="380" type="curve"/>
      <point x="970" y="359" type="line" smooth="yes"/>
      <point x="970" y="217"/>
      <point x="1059" y="134"/>
      <point x="1197" y="134" type="curve" smooth="yes"/>
      <point x="1289" y="134"/>
      <point x="1348" y="166"/>
      <point x="1383" y="219" type="curve"/>
      <point x="1387" y="219" type="line"/>
      <point x="1387" y="0" type="line"/>
      <point x="1461" y="0" type="line"/>
      <point x="1461" y="637" type="line"/>
      <point x="1599" y="637" type="line"/>
      <point x="1599" y="698" type="line"/>
      <point x="-20" y="698" type="line"/>
    </contour>
    <contour>
      <point x="1202" y="203" type="curve" smooth="yes"/>
      <point x="1104" y="203"/>
      <point x="1044" y="241"/>
      <point x="1044" y="338" type="curve" smooth="yes"/>
      <point x="1044" y="376" type="line" name="hr06"/>
      <point x="1076" y="376" type="line" smooth="yes"/>
      <point x="1166" y="376"/>
      <point x="1214" y="433"/>
      <point x="1214" y="523" type="curve" smooth="yes"/>
      <point x="1214" y="637" type="line"/>
      <point x="1387" y="637" type="line"/>
      <point x="1387" y="339" type="line" smooth="yes"/>
      <point x="1387" y="262"/>
      <point x="1318" y="203"/>
    </contour>
    <contour>
      <point x="270" y="170" type="curve" smooth="yes" name="hr07"/>
      <point x="178" y="170"/>
      <point x="124" y="225"/>
      <point x="124" y="302" type="curve" smooth="yes"/>
      <point x="124" y="324" type="line" smooth="yes"/>
      <point x="124" y="353"/>
      <point x="134" y="379"/>
      <point x="151" y="399" type="curve"/>
      <point x="181" y="369" type="line"/>
      <point x="342" y="215" type="line"/>
      <point x="368" y="193" type="line"/>
      <point x="333" y="174"/>
      <point x="303" y="170"/>
    </contour>
    <contour>
      <point x="402" y="228" type="curve"/>
      <point x="379" y="252" type="line"/>
      <point x="215" y="408" type="line"/>
      <point x="187" y="431" type="line"/>
      <point x="214" y="446"/>
      <point x="240" y="450"/>
      <point x="270" y="450" type="curve" smooth="yes"/>
      <point x="368" y="450"/>
      <point x="421" y="394"/>
      <point x="421" y="324" type="curve" smooth="yes"/>
      <point x="421" y="304" type="line" smooth="yes"/>
      <point x="421" y="273"/>
      <point x="414" y="247"/>
    </contour>
    <contour>
      <point x="1461.0" y="0.0" type="move" name="bottom_deva"/>
    </contour>
    <contour>
      <point x="1318.0" y="688.0" type="move" name="center_deva"/>
    </contour>
    <contour>
      <point x="1461.0" y="688.0" type="move" name="top_deva"/>
    </contour>
  </outline>
</glyph>
<glyph name="dvB_R" format="1">
  <advance width="357"/>
  <outline>
    <contour>
      <point x="-20" y="637" type="line" name="hr00"/>
      <point x="426" y="637" type="line"/>
      <point x="426" y="698" type="line"/>
      <point x="-20" y="698" type="line"/>
    </contour>
    <contour>
      <point x="100" y="-52" type="line"/>
      <point x="372" y="127" type="line"/>
      <point x="403" y="148" type="line" smooth="yes"/>
      <point x="457" y="184"/>
      <point x="487" y="241"/>
      <point x="487" y="312" type="curve" smooth="yes"/>
      <point x="487" y="426"/>
      <point x="403" y="507"/>
      <point x="270" y="507" type="curve" smooth="yes"/>
      <point x="139" y="507"/>
      <point x="54" y="422"/>
      <point x="54" y="312" type="curve" smooth="yes"/>
      <point x="54" y="198"/>
      <point x="137" y="118"/>
      <point x="245" y="118" type="curve" smooth="yes"/>
      <point x="248" y="118" type="line"/>
      <point x="248" y="113" type="line"/>
      <point x="157" y="67" type="line"/>
      <point x="59" y="7" type="line"/>
    </contour>
    <contour>
      <point x="270" y="450" type="curve" smooth="yes"/>
      <point x="367" y="450"/>
      <point x="418" y="394"/>
      <point x="418" y="324" type="curve" smooth="yes"/>
      <point x="418" y="304" type="line" smooth="yes"/>
      <point x="418" y="273"/>
      <point x="413" y="248"/>
      <point x="402" y="228" type="curve"/>
      <point x="379" y="252" type="line"/>
      <point x="215" y="408" type="line"/>
      <point x="187" y="431" type="line"/>
      <point x="196" y="436" type="line" smooth="yes"/>
      <point x="216" y="447"/>
      <point x="240" y="450"/>
    </contour>
    <contour>
      <point x="270" y="170" type="curve" smooth="yes"/>
      <point x="178" y="170"/>
      <point x="124" y="225"/>
      <point x="124" y="302" type="curve" smooth="yes"/>
      <point x="124" y="324" type="line" smooth="yes"/>
      <point x="124" y="353"/>
      <point x="134" y="379"/>
      <point x="151" y="399" type="curve"/>
      <point x="181" y="369" type="line"/>
      <point x="342" y="215" type="line"/>
      <point x="368" y="193" type="line"/>
      <point x="357" y="187" type="line" smooth="yes"/>
      <point x="333" y="174"/>
      <point x="303" y="170"/>
    </contour>
  </outline>
</glyph>
<glyph name="dvCH" format="1">
  <advance width="783"/>
  <outline>
    <component base="dvCHA"/>
    <component base="dvVirama" xOffset="572" yOffset="14"/>
    <contour>
      <point x="453.0" y="14.0" type="move" name="_bottom_deva"/>
    </contour>
    <contour>
      <point x="453.0" y="14.0" type="move" name="bottom_deva"/>
    </contour>
    <contour>
      <point x="421.0" y="688.0" type="move" name="center_deva"/>
    </contour>
    <contour>
      <point x="637.0" y="688.0" type="move" name="top_deva"/>
    </contour>
  </outline>
</glyph>
<glyph name="dvC_C" format="1">
  <advance width="786"/>
  <outline>
    <contour>
      <point x="-20" y="637" type="line" name="hr00"/>
      <point x="829" y="637" type="line"/>
      <point x="829" y="698" type="line"/>
      <point x="-20" y="698" type="line"/>
    </contour>
    <contour>
      <point x="323" y="105" type="curve" smooth="yes"/>
      <point x="409" y="105"/>
      <point x="480" y="137"/>
      <point x="521" y="194" type="curve"/>
      <point x="525" y="194" type="line"/>
      <point x="554" y="142"/>
      <point x="607" y="105"/>
      <point x="698" y="105" type="curve" smooth="yes"/>
      <point x="816" y="105"/>
      <point x="894" y="164"/>
      <point x="937" y="283" type="curve"/>
      <point x="888" y="329" type="line"/>
      <point x="854" y="225"/>
      <point x="793" y="171"/>
      <point x="698" y="171" type="curve" smooth="yes"/>
      <point x="621" y="171"/>
      <point x="573" y="215"/>
      <point x="573" y="289" type="curve" smooth="yes"/>
      <point x="573" y="368"/>
      <point x="623" y="419"/>
      <point x="692" y="419" type="curve" smooth="yes"/>
      <point x="738" y="419" type="line"/>
      <point x="738" y="479" type="line"/>
      <point x="34" y="479" type="line"/>
      <point x="34" y="416" type="line"/>
      <point x="135" y="416" type="line"/>
      <point x="207" y="417" type="line"/>
      <point x="207" y="413" type="line"/>
      <point x="158" y="384"/>
      <point x="135" y="334"/>
      <point x="135" y="278" type="curve" smooth="yes"/>
      <point x="135" y="179"/>
      <point x="211" y="105"/>
    </contour>
    <contour>
      <point x="333" y="171" type="curve" smooth="yes"/>
      <point x="256" y="171"/>
      <point x="208" y="215"/>
      <point x="208" y="289" type="curve" smooth="yes"/>
      <point x="208" y="366"/>
      <point x="259" y="418"/>
      <point x="321" y="418" type="curve" smooth="yes"/>
      <point x="572" y="420" type="line"/>
      <point x="572" y="415" type="line"/>
      <point x="524" y="386"/>
      <point x="500" y="334"/>
      <point x="500" y="278" type="curve" smooth="yes"/>
      <point x="500" y="271" type="line"/>
      <point x="466" y="206"/>
      <point x="405" y="171"/>
    </contour>
  </outline>
</glyph>
<glyph name="dvD_BHA" format="1">
  <advance width="680"/>
  <outline>
    <contour>
      <point x="247" y="-161" type="curve" smooth="yes" name="hr00"/>
      <point x="280" y="-161"/>
      <point x="302" y="-143"/>
      <point x="312" y="-122" type="curve"/>
      <point x="276" y="-64" type="line"/>
      <point x="465" y="58" type="line"/>
      <point x="505" y="89" type="line"/>
      <point x="509" y="89" type="line"/>
      <point x="520" y="56" type="line"/>
      <point x="567" y="-77" type="line"/>
      <point x="627" y="-56" type="line"/>
      <point x="579" y="73" type="line"/>
      <point x="563" y="112" type="line"/>
      <point x="594" y="128"/>
      <point x="606" y="148"/>
      <point x="606" y="176" type="curve" smooth="yes"/>
      <point x="606" y="220"/>
      <point x="581" y="251"/>
      <point x="531" y="251" type="curve" smooth="yes"/>
      <point x="503" y="251"/>
      <point x="478" y="241"/>
      <point x="460" y="229" type="curve"/>
      <point x="484" y="154" type="line"/>
      <point x="469" y="151"/>
      <point x="450" y="148"/>
      <point x="426" y="148" type="curve" smooth="yes"/>
      <point x="320" y="148"/>
      <point x="262" y="205"/>
      <point x="262" y="285" type="curve" smooth="yes"/>
      <point x="262" y="310" type="line" smooth="yes"/>
      <point x="262" y="379"/>
      <point x="309" y="445"/>
      <point x="414" y="445" type="curve" smooth="yes"/>
      <point x="569" y="445" type="line"/>
      <point x="569" y="637" type="line"/>
      <point x="700" y="637" type="line"/>
      <point x="700" y="698" type="line"/>
      <point x="-20" y="698" type="line"/>
      <point x="-20" y="637" type="line"/>
      <point x="495" y="637" type="line"/>
      <point x="495" y="508" type="line"/>
      <point x="419" y="508" type="line" smooth="yes"/>
      <point x="271" y="508"/>
      <point x="184" y="421"/>
      <point x="184" y="300" type="curve" smooth="yes"/>
      <point x="184" y="176"/>
      <point x="280" y="90"/>
      <point x="399" y="90" type="curve" smooth="yes"/>
      <point x="406" y="90" type="line"/>
      <point x="407" y="87" type="line"/>
      <point x="352" y="56" type="line"/>
      <point x="241" y="-12" type="line"/>
      <point x="137" y="147" type="line" smooth="yes"/>
      <point x="120" y="173"/>
      <point x="102" y="188"/>
      <point x="80" y="188" type="curve" smooth="yes"/>
      <point x="65" y="188"/>
      <point x="50" y="181"/>
      <point x="31" y="169" type="curve" smooth="yes"/>
      <point x="-40" y="123" type="line"/>
      <point x="-5" y="71" type="line"/>
      <point x="78" y="125" type="line"/>
      <point x="190" y="-46" type="line"/>
      <point x="179" y="-57"/>
      <point x="174" y="-71"/>
      <point x="174" y="-87" type="curve" smooth="yes"/>
      <point x="174" y="-122"/>
      <point x="205" y="-161"/>
    </contour>
    <contour>
      <point x="627.0" y="-61.0" type="move" name="bottom_deva"/>
    </contour>
    <contour>
      <point x="416.0" y="688.0" type="move" name="center_deva"/>
    </contour>
    <contour>
      <point x="569.0" y="688.0" type="move" name="top_deva"/>
    </contour>
  </outline>
</glyph>
<glyph name="dvG_DHA" format="1">
  <advance width="1017"/>
  <outline>
    <contour>
      <point x="825" y="0" type="line"/>
      <point x="899" y="0" type="line"/>
      <point x="899" y="637" type="line"/>
      <point x="1037" y="637" type="line"/>
      <point x="1037" y="698" type="line"/>
      <point x="825" y="698" type="line"/>
      <point x="825" y="335" type="line" smooth="yes"/>
      <point x="825" y="244"/>
      <point x="746" y="175"/>
      <point x="626" y="175" type="curve" smooth="yes"/>
      <point x="538" y="175"/>
      <point x="497" y="218"/>
      <point x="497" y="278" type="curve" smooth="yes"/>
      <point x="497" y="341"/>
      <point x="537" y="386"/>
      <point x="620" y="386" type="curve" smooth="yes"/>
      <point x="689" y="386" type="line"/>
      <point x="689" y="450" type="line"/>
      <point x="617" y="450" type="line" smooth="yes"/>
      <point x="524" y="450"/>
      <point x="474" y="494"/>
      <point x="474" y="555" type="curve" smooth="yes" name="hr01"/>
      <point x="474" y="607"/>
      <point x="508" y="640"/>
      <point x="564" y="640" type="curve" smooth="yes"/>
      <point x="594" y="640"/>
      <point x="619" y="631"/>
      <point x="645" y="617" type="curve"/>
      <point x="668" y="668" type="line"/>
      <point x="646" y="684"/>
      <point x="605" y="701"/>
      <point x="558" y="701" type="curve" smooth="yes"/>
      <point x="449" y="701"/>
      <point x="400" y="635"/>
      <point x="400" y="562" type="curve" smooth="yes"/>
      <point x="400" y="484"/>
      <point x="453" y="433"/>
      <point x="527" y="419" type="curve"/>
      <point x="527" y="413" type="line"/>
      <point x="462" y="397"/>
      <point x="419" y="345"/>
      <point x="419" y="273" type="curve" smooth="yes" name="hr02"/>
      <point x="419" y="184"/>
      <point x="488" y="109"/>
      <point x="623" y="109" type="curve" smooth="yes"/>
      <point x="723" y="109"/>
      <point x="788" y="152"/>
      <point x="821" y="198" type="curve"/>
      <point x="825" y="198" type="line"/>
    </contour>
    <contour>
      <point x="162" y="245" type="curve" smooth="yes"/>
      <point x="181" y="245"/>
      <point x="199" y="248"/>
      <point x="209" y="253" type="curve"/>
      <point x="209" y="637" type="line"/>
      <point x="342" y="637" type="line"/>
      <point x="342" y="698" type="line"/>
      <point x="-20" y="698" type="line"/>
      <point x="-20" y="637" type="line"/>
      <point x="135" y="637" type="line"/>
      <point x="135" y="393" type="line"/>
      <point x="94" y="385"/>
      <point x="73" y="359"/>
      <point x="73" y="320" type="curve" smooth="yes"/>
      <point x="73" y="273"/>
      <point x="103" y="245"/>
    </contour>
    <contour>
      <point x="899.0" y="0.0" type="move" name="bottom_deva"/>
    </contour>
    <contour>
      <point x="687.0" y="688.0" type="move" name="center_deva"/>
    </contour>
    <contour>
      <point x="899.0" y="688.0" type="move" name="top_deva"/>
    </contour>
  </outline>
</glyph>
<glyph name="dvG_N" format="1">
  <advance width="346"/>
  <outline>
    <contour>
      <point x="162" y="245" type="curve" smooth="yes"/>
      <point x="181" y="245"/>
      <point x="199" y="248"/>
      <point x="209" y="253" type="curve"/>
      <point x="209" y="637" type="line"/>
      <point x="342" y="637" type="line"/>
      <point x="342" y="698" type="line"/>
      <point x="-20" y="698" type="line"/>
      <point x="-20" y="637" type="line"/>
      <point x="135" y="637" type="line"/>
      <point x="135" y="393" type="line"/>
      <point x="94" y="385"/>
      <point x="73" y="359"/>
      <point x="73" y="320" type="curve" smooth="yes"/>
      <point x="73" y="273"/>
      <point x="103" y="245"/>
    </contour>
    <contour>
      <point x="232" y="-48" type="curve" smooth="yes"/>
      <point x="264" y="-48"/>
      <point x="284" y="-30"/>
      <point x="291" y="-6" type="curve"/>
      <point x="238" y="54" type="line"/>
      <point x="466" y="245" type="line" name="hr01"/>
      <point x="426" y="294" type="line"/>
      <point x="182" y="89" type="line" smooth="yes"/>
      <point x="156" y="67"/>
      <point x="151" y="55"/>
      <point x="151" y="32" type="curve" smooth="yes"/>
      <point x="151" y="-3"/>
      <point x="185" y="-48"/>
    </contour>
  </outline>
</glyph>
<glyph name="dvG_SA" format="1">
  <advance width="1018"/>
  <outline>
    <contour>
      <point x="162" y="245" type="curve" smooth="yes" name="hr00"/>
      <point x="181" y="245"/>
      <point x="199" y="248"/>
      <point x="209" y="253" type="curve"/>
      <point x="209" y="637" type="line"/>
      <point x="529" y="637" type="line"/>
      <point x="529" y="500" type="line" smooth="yes"/>
      <point x="529" y="418"/>
      <point x="484" y="373"/>
      <point x="416" y="373" type="curve" smooth="yes"/>
      <point x="389" y="373" type="line"/>
      <point x="389" y="306" type="line"/>
      <point x="582" y="-6" type="line"/>
      <point x="640" y="35" type="line"/>
      <point x="510" y="244" type="line"/>
      <point x="473" y="299" type="line"/>
      <point x="473" y="301" type="line"/>
      <point x="826" y="301" type="line"/>
      <point x="826" y="0" type="line"/>
      <point x="900" y="0" type="line"/>
      <point x="900" y="637" type="line"/>
      <point x="1038" y="637" type="line"/>
      <point x="1038" y="698" type="line"/>
      <point x="-20" y="698" type="line"/>
      <point x="-20" y="637" type="line"/>
      <point x="135" y="637" type="line"/>
      <point x="135" y="393" type="line"/>
      <point x="94" y="385"/>
      <point x="73" y="359"/>
      <point x="73" y="320" type="curve" smooth="yes"/>
      <point x="73" y="273"/>
      <point x="103" y="245"/>
    </contour>
    <contour>
      <point x="537" y="364" type="line"/>
      <point x="586" y="397"/>
      <point x="603" y="439"/>
      <point x="603" y="509" type="curve" smooth="yes"/>
      <point x="603" y="637" type="line"/>
      <point x="826" y="637" type="line"/>
      <point x="826" y="364" type="line"/>
      <point x="613" y="364" type="line"/>
      <point x="537" y="361" type="line"/>
    </contour>
    <contour>
      <point x="900.0" y="0.0" type="move" name="bottom_deva"/>
    </contour>
    <contour>
      <point x="727.0" y="688.0" type="move" name="center_deva"/>
    </contour>
    <contour>
      <point x="900.0" y="688.0" type="move" name="top_deva"/>
    </contour>
  </outline>
</glyph>
<glyph name="dvHA_mvR" format="1">
  <advance width="560"/>
  <outline>
    <contour>
      <point x="77" y="411" type="curve" smooth="yes"/>
      <point x="77" y="362"/>
      <point x="108" y="325"/>
      <point x="143" y="296" type="curve"/>
      <point x="143" y="291" type="line"/>
      <point x="108" y="249"/>
      <point x="88" y="195"/>
      <point x="88" y="133" type="curve" smooth="yes" name="hr01"/>
      <point x="88" y="-34"/>
      <point x="199" y="-141"/>
      <point x="398" y="-141" type="curve" smooth="yes"/>
      <point x="472" y="-141" type="line"/>
      <point x="472" y="-82" type="line"/>
      <point x="411" y="-82" type="line" smooth="yes"/>
      <point x="226" y="-82"/>
      <point x="162" y="3"/>
      <point x="162" y="115" type="curve" smooth="yes"/>
      <point x="162" y="147" type="line" smooth="yes"/>
      <point x="162" y="235"/>
      <point x="224" y="311"/>
      <point x="339" y="311" type="curve" smooth="yes"/>
      <point x="398" y="311"/>
      <point x="421" y="292"/>
      <point x="421" y="265" type="curve" smooth="yes"/>
      <point x="421" y="245"/>
      <point x="399" y="226"/>
      <point x="371" y="203" type="curve" smooth="yes"/>
      <point x="340" y="178"/>
      <point x="310" y="146"/>
      <point x="310" y="100" type="curve" smooth="yes"/>
      <point x="310" y="41"/>
      <point x="349" y="0"/>
      <point x="440" y="0" type="curve" smooth="yes"/>
      <point x="527" y="0" type="line"/>
      <point x="527" y="58" type="line"/>
      <point x="436" y="58" type="line" smooth="yes"/>
      <point x="396" y="58"/>
      <point x="377" y="72"/>
      <point x="377" y="100" type="curve" smooth="yes"/>
      <point x="377" y="126"/>
      <point x="399" y="146"/>
      <point x="430" y="172" type="curve" smooth="yes"/>
      <point x="461" y="198"/>
      <point x="490" y="224"/>
      <point x="490" y="267" type="curve" smooth="yes"/>
      <point x="490" y="323"/>
      <point x="442" y="374"/>
      <point x="338" y="374" type="curve" smooth="yes"/>
      <point x="278" y="374"/>
      <point x="225" y="357"/>
      <point x="183" y="328" type="curve"/>
      <point x="159" y="350"/>
      <point x="146" y="377"/>
      <point x="146" y="406" type="curve" smooth="yes" name="hr02"/>
      <point x="146" y="443"/>
      <point x="165" y="469"/>
      <point x="216" y="469" type="curve" smooth="yes"/>
      <point x="454" y="469" type="line"/>
      <point x="454" y="637" type="line"/>
      <point x="580" y="637" type="line"/>
      <point x="580" y="698" type="line"/>
      <point x="-20" y="698" type="line"/>
      <point x="-20" y="637" type="line"/>
      <point x="380" y="637" type="line"/>
      <point x="380" y="533" type="line"/>
      <point x="216" y="533" type="line" smooth="yes"/>
      <point x="127" y="533"/>
      <point x="77" y="482"/>
    </contour>
    <contour>
      <point x="313.0" y="688.0" type="move" name="center_deva"/>
    </contour>
    <contour>
      <point x="453.0" y="683.0" type="move" name="top_deva"/>
    </contour>
  </outline>
</glyph>
<glyph name="dvJH" format="1">
  <advance width="508"/>
  <outline>
    <contour>
      <point x="208" y="-119" type="line"/>
      <point x="266" y="-101" type="line"/>
      <point x="230" y="1" type="line"/>
      <point x="220" y="24" type="line"/>
      <point x="222" y="27" type="line"/>
      <point x="237" y="25"/>
      <point x="248" y="24"/>
      <point x="260" y="24" type="curve" smooth="yes"/>
      <point x="391" y="24"/>
      <point x="453" y="83"/>
      <point x="453" y="178" type="curve" smooth="yes"/>
      <point x="453" y="194"/>
      <point x="451" y="208"/>
      <point x="447" y="221" type="curve"/>
      <point x="448" y="223" type="line"/>
      <point x="648" y="223" type="line"/>
      <point x="648" y="284" type="line"/>
      <point x="412" y="284" type="line"/>
      <point x="384" y="311"/>
      <point x="342" y="326"/>
      <point x="284" y="326" type="curve" smooth="yes" name="hr01"/>
      <point x="223" y="326" type="line" smooth="yes"/>
      <point x="163" y="326"/>
      <point x="139" y="351"/>
      <point x="139" y="389" type="curve" smooth="yes"/>
      <point x="139" y="400" type="line" smooth="yes"/>
      <point x="139" y="435"/>
      <point x="160" y="460"/>
      <point x="211" y="460" type="curve" smooth="yes"/>
      <point x="401" y="460" type="line"/>
      <point x="401" y="637" type="line"/>
      <point x="541" y="637" type="line"/>
      <point x="541" y="698" type="line"/>
      <point x="-20" y="698" type="line"/>
      <point x="-20" y="637" type="line"/>
      <point x="327" y="637" type="line"/>
      <point x="327" y="522" type="line"/>
      <point x="218" y="522" type="line" smooth="yes"/>
      <point x="119" y="522"/>
      <point x="69" y="472"/>
      <point x="69" y="395" type="curve" smooth="yes"/>
      <point x="69" y="312"/>
      <point x="124" y="263"/>
      <point x="235" y="263" type="curve" smooth="yes"/>
      <point x="281" y="263" type="line" smooth="yes"/>
      <point x="351" y="263"/>
      <point x="382" y="234"/>
      <point x="382" y="185" type="curve" smooth="yes" name="hr02"/>
      <point x="382" y="169" type="line" smooth="yes"/>
      <point x="382" y="116"/>
      <point x="345" y="82"/>
      <point x="259" y="82" type="curve" smooth="yes"/>
      <point x="244" y="82"/>
      <point x="224" y="82"/>
      <point x="203" y="84" type="curve"/>
      <point x="170" y="168" type="line"/>
      <point x="163" y="169"/>
      <point x="154" y="170"/>
      <point x="145" y="170" type="curve" smooth="yes"/>
      <point x="99" y="170"/>
      <point x="74" y="145"/>
      <point x="74" y="106" type="curve" smooth="yes"/>
      <point x="74" y="66"/>
      <point x="97" y="40"/>
      <point x="156" y="30" type="curve"/>
      <point x="169" y="-10" type="line"/>
    </contour>
    <contour>
      <point x="293.0" y="688.0" type="move" name="center_deva"/>
    </contour>
    <contour>
      <point x="401.0" y="688.0" type="move" name="top_deva"/>
    </contour>
  </outline>
</glyph>
<glyph name="dvJH_R" format="1">
  <advance width="569"/>
  <outline>
    <contour>
      <point x="209" y="-119" type="line"/>
      <point x="267" y="-101" type="line"/>
      <point x="231" y="1" type="line"/>
      <point x="221" y="24" type="line"/>
      <point x="223" y="27" type="line"/>
      <point x="238" y="25"/>
      <point x="249" y="24"/>
      <point x="261" y="24" type="curve" smooth="yes"/>
      <point x="392" y="24"/>
      <point x="454" y="83"/>
      <point x="454" y="178" type="curve" smooth="yes"/>
      <point x="454" y="194"/>
      <point x="452" y="208"/>
      <point x="448" y="221" type="curve"/>
      <point x="449" y="223" type="line"/>
      <point x="639" y="223" type="line"/>
      <point x="639" y="219" type="line"/>
      <point x="458" y="8" type="line"/>
      <point x="509" y="-34" type="line"/>
      <point x="679" y="176" type="line"/>
      <point x="709" y="221" type="line"/>
      <point x="709" y="284" type="line"/>
      <point x="413" y="284" type="line"/>
      <point x="385" y="311"/>
      <point x="343" y="326"/>
      <point x="285" y="326" type="curve" smooth="yes" name="hr01"/>
      <point x="224" y="326" type="line" smooth="yes"/>
      <point x="164" y="326"/>
      <point x="140" y="351"/>
      <point x="140" y="389" type="curve" smooth="yes"/>
      <point x="140" y="400" type="line" smooth="yes"/>
      <point x="140" y="435"/>
      <point x="161" y="460"/>
      <point x="212" y="460" type="curve" smooth="yes"/>
      <point x="402" y="460" type="line"/>
      <point x="402" y="637" type="line"/>
      <point x="602" y="637" type="line"/>
      <point x="602" y="698" type="line"/>
      <point x="-19" y="698" type="line"/>
      <point x="-19" y="637" type="line"/>
      <point x="328" y="637" type="line"/>
      <point x="328" y="522" type="line"/>
      <point x="219" y="522" type="line" smooth="yes"/>
      <point x="120" y="522"/>
      <point x="70" y="472"/>
      <point x="70" y="395" type="curve" smooth="yes"/>
      <point x="70" y="312"/>
      <point x="125" y="263"/>
      <point x="236" y="263" type="curve" smooth="yes"/>
      <point x="282" y="263" type="line" smooth="yes"/>
      <point x="352" y="263"/>
      <point x="383" y="234"/>
      <point x="383" y="185" type="curve" smooth="yes" name="hr02"/>
      <point x="383" y="169" type="line" smooth="yes"/>
      <point x="383" y="116"/>
      <point x="346" y="82"/>
      <point x="260" y="82" type="curve" smooth="yes"/>
      <point x="245" y="82"/>
      <point x="225" y="82"/>
      <point x="204" y="84" type="curve"/>
      <point x="171" y="168" type="line"/>
      <point x="164" y="169"/>
      <point x="155" y="170"/>
      <point x="146" y="170" type="curve" smooth="yes"/>
      <point x="100" y="170"/>
      <point x="75" y="145"/>
      <point x="75" y="106" type="curve" smooth="yes"/>
      <point x="75" y="66"/>
      <point x="98" y="40"/>
      <point x="157" y="30" type="curve"/>
      <point x="170" y="-10" type="line"/>
    </contour>
  </outline>
</glyph>
<glyph name="dvJ_J_YA" format="1">
  <advance width="1569"/>
  <outline>
    <contour>
      <point x="-20" y="637" type="line" name="hr00"/>
      <point x="1130" y="637" type="line"/>
      <point x="1130" y="523" type="line" smooth="yes"/>
      <point x="1130" y="463"/>
      <point x="1109" y="436"/>
      <point x="1057" y="436" type="curve" smooth="yes"/>
      <point x="282" y="436" type="line"/>
      <point x="282" y="373" type="line"/>
      <point x="296" y="373" type="line" smooth="yes"/>
      <point x="368" y="373"/>
      <point x="424" y="311"/>
      <point x="424" y="238" type="curve" smooth="yes"/>
      <point x="424" y="211" type="line" smooth="yes"/>
      <point x="424" y="153"/>
      <point x="386" y="105"/>
      <point x="311" y="105" type="curve" smooth="yes"/>
      <point x="225" y="105"/>
      <point x="142" y="165"/>
      <point x="128" y="378" type="curve"/>
      <point x="62" y="361" type="line"/>
      <point x="75" y="140"/>
      <point x="182" y="40"/>
      <point x="313" y="40" type="curve" smooth="yes"/>
      <point x="389" y="40"/>
      <point x="448" y="75"/>
      <point x="476" y="139" type="curve"/>
      <point x="479" y="139" type="line"/>
      <point x="517" y="78"/>
      <point x="574" y="40"/>
      <point x="661" y="40" type="curve" smooth="yes"/>
      <point x="764" y="40"/>
      <point x="845" y="108"/>
      <point x="845" y="223" type="curve" smooth="yes"/>
      <point x="845" y="294"/>
      <point x="813" y="344"/>
      <point x="775" y="368" type="curve"/>
      <point x="775" y="373" type="line"/>
      <point x="960" y="373" type="line"/>
      <point x="960" y="359" type="line" smooth="yes"/>
      <point x="960" y="217"/>
      <point x="1049" y="134"/>
      <point x="1187" y="134" type="curve" smooth="yes"/>
      <point x="1279" y="134"/>
      <point x="1338" y="166"/>
      <point x="1373" y="219" type="curve"/>
      <point x="1377" y="219" type="line"/>
      <point x="1377" y="0" type="line"/>
      <point x="1451" y="0" type="line"/>
      <point x="1451" y="637" type="line"/>
      <point x="1589" y="637" type="line"/>
      <point x="1589" y="698" type="line"/>
      <point x="-20" y="698" type="line"/>
    </contour>
    <contour>
      <point x="1192" y="203" type="curve" smooth="yes"/>
      <point x="1094" y="203"/>
      <point x="1034" y="241"/>
      <point x="1034" y="338" type="curve" smooth="yes"/>
      <point x="1034" y="376" type="line"/>
      <point x="1066" y="376" type="line" smooth="yes"/>
      <point x="1156" y="376"/>
      <point x="1204" y="433"/>
      <point x="1204" y="523" type="curve" smooth="yes"/>
      <point x="1204" y="637" type="line"/>
      <point x="1377" y="637" type="line"/>
      <point x="1377" y="339" type="line" smooth="yes"/>
      <point x="1377" y="262"/>
      <point x="1308" y="203"/>
    </contour>
    <contour>
      <point x="659" y="105" type="curve" smooth="yes"/>
      <point x="576" y="105"/>
      <point x="518" y="164"/>
      <point x="494" y="261" type="curve" smooth="yes"/>
      <point x="481" y="315"/>
      <point x="457" y="348"/>
      <point x="427" y="368" type="curve"/>
      <point x="427" y="373" type="line"/>
      <point x="644" y="373" type="line" smooth="yes"/>
      <point x="716" y="373"/>
      <point x="772" y="311"/>
      <point x="772" y="238" type="curve" smooth="yes"/>
      <point x="772" y="211" type="line" smooth="yes"/>
      <point x="772" y="153"/>
      <point x="734" y="105"/>
    </contour>
    <contour>
      <point x="1451.0" y="0.0" type="move" name="bottom_deva"/>
    </contour>
    <contour>
      <point x="1308.0" y="688.0" type="move" name="center_deva"/>
    </contour>
    <contour>
      <point x="1451.0" y="688.0" type="move" name="top_deva"/>
    </contour>
  </outline>
</glyph>
<glyph name="dvKH_NA" format="1">
  <advance width="914"/>
  <outline>
    <contour>
      <point x="333" y="-144" type="curve" smooth="yes" name="hr00"/>
      <point x="361" y="-144"/>
      <point x="378" y="-132"/>
      <point x="388" y="-111" type="curve"/>
      <point x="343" y="-43" type="line"/>
      <point x="660" y="164" type="line" smooth="yes"/>
      <point x="678" y="176"/>
      <point x="708" y="198"/>
      <point x="719" y="208" type="curve"/>
      <point x="722" y="208" type="line"/>
      <point x="722" y="0" type="line"/>
      <point x="796" y="0" type="line"/>
      <point x="796" y="637" type="line"/>
      <point x="934" y="637" type="line"/>
      <point x="934" y="698" type="line"/>
      <point x="-20" y="698" type="line"/>
      <point x="-20" y="637" type="line"/>
      <point x="243" y="637" type="line"/>
      <point x="243" y="491" type="line" smooth="yes"/>
      <point x="243" y="406"/>
      <point x="209" y="373"/>
      <point x="109" y="373" type="curve" smooth="yes"/>
      <point x="67" y="373" type="line"/>
      <point x="67" y="306" type="line"/>
      <point x="138" y="194" type="line" smooth="yes"/>
      <point x="203" y="92"/>
      <point x="260" y="55"/>
      <point x="357" y="42" type="curve"/>
      <point x="357" y="39" type="line"/>
      <point x="298" y="3" type="line" smooth="yes"/>
      <point x="264" y="-18"/>
      <point x="255" y="-37"/>
      <point x="255" y="-62" type="curve" smooth="yes"/>
      <point x="255" y="-102"/>
      <point x="290" y="-144"/>
    </contour>
    <contour>
      <point x="433" y="91" type="line" smooth="yes"/>
      <point x="310" y="91"/>
      <point x="263" y="116"/>
      <point x="196" y="224" type="curve" smooth="yes"/>
      <point x="144" y="308" type="line"/>
      <point x="144" y="310" type="line"/>
      <point x="258" y="318"/>
      <point x="317" y="372"/>
      <point x="317" y="507" type="curve" smooth="yes"/>
      <point x="317" y="637" type="line"/>
      <point x="722" y="637" type="line"/>
      <point x="722" y="462" type="line"/>
      <point x="718" y="462" type="line"/>
      <point x="690" y="487"/>
      <point x="647" y="509"/>
      <point x="585" y="509" type="curve" smooth="yes"/>
      <point x="479" y="509"/>
      <point x="414" y="441"/>
      <point x="414" y="347" type="curve" smooth="yes"/>
      <point x="414" y="254"/>
      <point x="482" y="187"/>
      <point x="580" y="187" type="curve" smooth="yes"/>
      <point x="583" y="187"/>
      <point x="589" y="187"/>
      <point x="597" y="188" type="curve"/>
      <point x="597" y="183" type="line"/>
      <point x="522" y="138" type="line"/>
      <point x="444" y="91" type="line"/>
    </contour>
    <contour>
      <point x="597" y="242" type="curve" smooth="yes"/>
      <point x="525" y="242"/>
      <point x="484" y="285"/>
      <point x="484" y="336" type="curve" smooth="yes"/>
      <point x="484" y="356" type="line" smooth="yes"/>
      <point x="484" y="407"/>
      <point x="525" y="450"/>
      <point x="597" y="450" type="curve" smooth="yes"/>
      <point x="679" y="450"/>
      <point x="723" y="404"/>
      <point x="723" y="358" type="curve" smooth="yes"/>
      <point x="723" y="334" type="line" smooth="yes"/>
      <point x="723" y="288"/>
      <point x="679" y="242"/>
    </contour>
    <contour>
      <point x="796.0" y="0.0" type="move" name="bottom_deva"/>
    </contour>
    <contour>
      <point x="533.0" y="688.0" type="move" name="center_deva"/>
    </contour>
    <contour>
      <point x="796.0" y="688.0" type="move" name="top_deva"/>
    </contour>
  </outline>
</glyph>
<glyph name="dvK_KHA" format="1">
  <advance width="1571"/>
  <outline>
    <contour>
      <point x="396" y="0" type="line"/>
      <point x="470" y="0" type="line"/>
      <point x="470" y="224" type="line" smooth="yes"/>
      <point x="470" y="334"/>
      <point x="536" y="395"/>
      <point x="606" y="395" type="curve" smooth="yes"/>
      <point x="657" y="395"/>
      <point x="686" y="373"/>
      <point x="734" y="294" type="curve" smooth="yes"/>
      <point x="796" y="193" type="line" smooth="yes"/>
      <point x="877" y="61"/>
      <point x="969" y="-1"/>
      <point x="1128" y="-1" type="curve" smooth="yes" name="hr01"/>
      <point x="1208" y="-1" type="line"/>
      <point x="1208" y="58" type="line"/>
      <point x="1130" y="58" type="line" smooth="yes"/>
      <point x="1012" y="58"/>
      <point x="933" y="99"/>
      <point x="853" y="224" type="curve" smooth="yes"/>
      <point x="801" y="308" type="line"/>
      <point x="801" y="310" type="line"/>
      <point x="915" y="318"/>
      <point x="974" y="372"/>
      <point x="974" y="507" type="curve" smooth="yes"/>
      <point x="974" y="637" type="line"/>
      <point x="1379" y="637" type="line"/>
      <point x="1379" y="462" type="line"/>
      <point x="1375" y="462" type="line"/>
      <point x="1347" y="487"/>
      <point x="1304" y="509"/>
      <point x="1242" y="509" type="curve" smooth="yes"/>
      <point x="1136" y="509"/>
      <point x="1071" y="441"/>
      <point x="1071" y="347" type="curve"/>
      <point x="1071" y="253"/>
      <point x="1136" y="185"/>
      <point x="1242" y="185" type="curve" smooth="yes"/>
      <point x="1304" y="185"/>
      <point x="1347" y="208"/>
      <point x="1375" y="233" type="curve"/>
      <point x="1379" y="233" type="line"/>
      <point x="1379" y="0" type="line" name="hr02"/>
      <point x="1453" y="0" type="line"/>
      <point x="1453" y="637" type="line"/>
      <point x="1591" y="637" type="line"/>
      <point x="1591" y="698" type="line"/>
      <point x="-20" y="698" type="line"/>
      <point x="-20" y="637" type="line"/>
      <point x="396" y="637" type="line"/>
      <point x="396" y="430" type="line"/>
      <point x="392" y="430" type="line"/>
      <point x="362" y="466"/>
      <point x="315" y="497"/>
      <point x="240" y="497" type="curve" smooth="yes"/>
      <point x="133" y="497"/>
      <point x="53" y="419"/>
      <point x="53" y="307" type="curve" smooth="yes"/>
      <point x="53" y="195"/>
      <point x="133" y="117"/>
      <point x="240" y="117" type="curve" smooth="yes"/>
      <point x="309" y="117"/>
      <point x="359" y="143"/>
      <point x="392" y="185" type="curve"/>
      <point x="396" y="185" type="line"/>
    </contour>
    <contour>
      <point x="900" y="491" type="line" smooth="yes"/>
      <point x="900" y="406"/>
      <point x="866" y="373"/>
      <point x="766" y="373" type="curve" smooth="yes"/>
      <point x="764" y="373" type="line"/>
      <point x="727" y="425"/>
      <point x="687" y="458"/>
      <point x="616" y="458" type="curve" smooth="yes" name="hr03"/>
      <point x="547" y="458"/>
      <point x="500" y="418"/>
      <point x="474" y="379" type="curve"/>
      <point x="470" y="379" type="line"/>
      <point x="470" y="637" type="line"/>
      <point x="900" y="637" type="line"/>
    </contour>
    <contour>
      <point x="1254" y="243" type="curve" smooth="yes"/>
      <point x="1182" y="243"/>
      <point x="1141" y="286"/>
      <point x="1141" y="337" type="curve" smooth="yes"/>
      <point x="1141" y="357" type="line" smooth="yes"/>
      <point x="1141" y="408"/>
      <point x="1182" y="451"/>
      <point x="1254" y="451" type="curve" smooth="yes" name="hr04"/>
      <point x="1336" y="451"/>
      <point x="1380" y="405"/>
      <point x="1380" y="359" type="curve" smooth="yes"/>
      <point x="1380" y="335" type="line" smooth="yes"/>
      <point x="1380" y="289"/>
      <point x="1336" y="243"/>
    </contour>
    <contour>
      <point x="260" y="179" type="curve" smooth="yes"/>
      <point x="178" y="179"/>
      <point x="130" y="233"/>
      <point x="130" y="297" type="curve" smooth="yes"/>
      <point x="130" y="319" type="line" smooth="yes"/>
      <point x="130" y="383"/>
      <point x="178" y="437"/>
      <point x="260" y="437" type="curve" smooth="yes" name="hr05"/>
      <point x="349" y="437"/>
      <point x="398" y="377"/>
      <point x="398" y="321" type="curve" smooth="yes"/>
      <point x="398" y="295" type="line" smooth="yes"/>
      <point x="398" y="239"/>
      <point x="349" y="179"/>
    </contour>
    <contour>
      <point x="1453.0" y="0.0" type="move" name="bottom_deva"/>
    </contour>
    <contour>
      <point x="1181.0" y="688.0" type="move" name="center_deva"/>
    </contour>
    <contour>
      <point x="1453.0" y="688.0" type="move" name="top_deva"/>
    </contour>
  </outline>
</glyph>
<glyph name="dvK_P_RA" format="1">
  <advance width="1217"/>
  <outline>
    <contour>
      <point x="-20" y="637" type="line"/>
      <point x="396" y="637" type="line"/>
      <point x="396" y="430" type="line"/>
      <point x="392" y="430" type="line"/>
      <point x="362" y="466"/>
      <point x="315" y="497"/>
      <point x="240" y="497" type="curve" smooth="yes"/>
      <point x="133" y="497"/>
      <point x="53" y="419"/>
      <point x="53" y="307" type="curve" smooth="yes"/>
      <point x="53" y="195"/>
      <point x="133" y="117"/>
      <point x="240" y="117" type="curve" smooth="yes"/>
      <point x="309" y="117"/>
      <point x="359" y="143"/>
      <point x="392" y="185" type="curve"/>
      <point x="396" y="185" type="line"/>
      <point x="396" y="0" type="line"/>
      <point x="470" y="0" type="line"/>
      <point x="470" y="244" type="line" smooth="yes"/>
      <point x="470" y="354"/>
      <point x="533" y="418"/>
      <point x="613" y="418" type="curve" smooth="yes" name="hr01"/>
      <point x="672" y="418"/>
      <point x="698" y="395"/>
      <point x="713" y="350" type="curve" smooth="yes"/>
      <point x="740" y="268"/>
      <point x="788" y="226"/>
      <point x="886" y="226" type="curve" smooth="yes"/>
      <point x="895" y="226"/>
      <point x="898" y="226"/>
      <point x="912" y="227" type="curve"/>
      <point x="913" y="222" type="line"/>
      <point x="839" y="154" type="line"/>
      <point x="686" y="-1" type="line"/>
      <point x="742" y="-50" type="line"/>
      <point x="942" y="164" type="line"/>
      <point x="1021" y="254" type="line"/>
      <point x="1025" y="254" type="line"/>
      <point x="1025" y="0" type="line"/>
      <point x="1099" y="0" type="line"/>
      <point x="1099" y="637" type="line"/>
      <point x="1237" y="637" type="line"/>
      <point x="1237" y="698" type="line"/>
      <point x="-20" y="698" type="line"/>
    </contour>
    <contour>
      <point x="704" y="453" type="line"/>
      <point x="701" y="453" type="line"/>
      <point x="679" y="471"/>
      <point x="654" y="484"/>
      <point x="612" y="484" type="curve" smooth="yes"/>
      <point x="548" y="484"/>
      <point x="501" y="444"/>
      <point x="474" y="402" type="curve"/>
      <point x="470" y="402" type="line"/>
      <point x="470" y="637" type="line"/>
      <point x="704" y="637" type="line"/>
    </contour>
    <contour>
      <point x="778" y="419" type="curve" smooth="yes"/>
      <point x="778" y="637" type="line"/>
      <point x="1025" y="637" type="line"/>
      <point x="1025" y="404" type="line" smooth="yes"/>
      <point x="1025" y="335"/>
      <point x="975" y="289"/>
      <point x="892" y="289" type="curve" smooth="yes"/>
      <point x="817" y="289"/>
      <point x="778" y="327"/>
    </contour>
    <contour>
      <point x="260" y="179" type="curve" smooth="yes"/>
      <point x="178" y="179"/>
      <point x="130" y="233"/>
      <point x="130" y="297" type="curve" smooth="yes"/>
      <point x="130" y="319" type="line" smooth="yes"/>
      <point x="130" y="383"/>
      <point x="178" y="437"/>
      <point x="260" y="437" type="curve" smooth="yes" name="hr02"/>
      <point x="349" y="437"/>
      <point x="398" y="377"/>
      <point x="398" y="321" type="curve" smooth="yes"/>
      <point x="398" y="295" type="line" smooth="yes"/>
      <point x="398" y="239"/>
      <point x="349" y="179"/>
    </contour>
    <contour>
      <point x="1099.0" y="0.0" type="move" name="bottom_deva"/>
    </contour>
    <contour>
      <point x="909.0" y="688.0" type="move" name="center_deva"/>
    </contour>
    <contour>
      <point x="1099.0" y="688.0" type="move" name="top_deva"/>
    </contour>
  </outline>
</glyph>
<glyph name="dvK_RA" format="1">
  <advance width="857"/>
  <outline>
    <contour>
      <point x="92" y="-58" type="line"/>
      <point x="353" y="147" type="line" smooth="yes"/>
      <point x="372" y="162"/>
      <point x="381" y="171"/>
      <point x="392" y="185" type="curve"/>
      <point x="396" y="185" type="line"/>
      <point x="396" y="0" type="line"/>
      <point x="470" y="0" type="line"/>
      <point x="470" y="250" type="line" smooth="yes"/>
      <point x="470" y="352"/>
      <point x="543" y="421"/>
      <point x="630" y="421" type="curve" smooth="yes"/>
      <point x="711" y="421"/>
      <point x="743" y="374"/>
      <point x="743" y="317" type="curve" smooth="yes"/>
      <point x="743" y="303" type="line" smooth="yes"/>
      <point x="743" y="238"/>
      <point x="703" y="194"/>
      <point x="613" y="174" type="curve"/>
      <point x="639" y="107" type="line"/>
      <point x="761" y="133"/>
      <point x="814" y="212"/>
      <point x="814" y="313" type="curve" smooth="yes"/>
      <point x="814" y="411"/>
      <point x="741" y="487"/>
      <point x="641" y="487" type="curve" smooth="yes"/>
      <point x="558" y="487"/>
      <point x="505" y="444"/>
      <point x="474" y="395" type="curve"/>
      <point x="470" y="395" type="line"/>
      <point x="470" y="637" type="line"/>
      <point x="877" y="637" type="line"/>
      <point x="877" y="698" type="line"/>
      <point x="-20" y="698" type="line"/>
      <point x="-20" y="637" type="line"/>
      <point x="396" y="637" type="line"/>
      <point x="396" y="430" type="line"/>
      <point x="392" y="430" type="line"/>
      <point x="362" y="466"/>
      <point x="315" y="497"/>
      <point x="240" y="497" type="curve" smooth="yes" name="hr01"/>
      <point x="133" y="497"/>
      <point x="53" y="419"/>
      <point x="53" y="307" type="curve" smooth="yes"/>
      <point x="53" y="187"/>
      <point x="142" y="124"/>
      <point x="220" y="124" type="curve" smooth="yes"/>
      <point x="225" y="124" type="line"/>
      <point x="226" y="120" type="line"/>
      <point x="138" y="66" type="line"/>
      <point x="44" y="-2" type="line"/>
    </contour>
    <contour>
      <point x="260" y="179" type="curve" smooth="yes"/>
      <point x="178" y="179"/>
      <point x="130" y="233"/>
      <point x="130" y="297" type="curve" smooth="yes"/>
      <point x="130" y="319" type="line" smooth="yes"/>
      <point x="130" y="383"/>
      <point x="178" y="437"/>
      <point x="260" y="437" type="curve" smooth="yes"/>
      <point x="349" y="437"/>
      <point x="398" y="377"/>
      <point x="398" y="321" type="curve" smooth="yes"/>
      <point x="398" y="295" type="line" smooth="yes"/>
      <point x="398" y="239"/>
      <point x="349" y="179"/>
    </contour>
    <contour>
      <point x="470.0" y="0.0" type="move" name="bottom_deva"/>
    </contour>
    <contour>
      <point x="434.0" y="688.0" type="move" name="center_deva"/>
    </contour>
    <contour>
      <point x="470.0" y="688.0" type="move" name="top_deva"/>
    </contour>
  </outline>
</glyph>
<glyph name="dvKx_BA" format="1">
  <advance width="1298"/>
  <outline>
    <component base="dvK_BA"/>
    <component base="dvNukta" yOffset="1"/>
    <contour>
      <point x="1180.0" y="0.0" type="move" name="bottom_deva"/>
    </contour>
    <contour>
      <point x="966.0" y="688.0" type="move" name="center_deva"/>
    </contour>
    <contour>
      <point x="1180.0" y="688.0" type="move" name="top_deva"/>
    </contour>
  </outline>
</glyph>
<glyph name="dvKx_KxA" format="1">
  <advance width="1531"/>
  <outline>
    <component base="dvK_KA"/>
    <component base="dvNukta" xOffset="1"/>
    <component base="dvNukta" xOffset="671"/>
    <contour>
      <point x="1144.0" y="0.0" type="move" name="bottom_deva"/>
    </contour>
    <contour>
      <point x="1108.0" y="688.0" type="move" name="center_deva"/>
    </contour>
    <contour>
      <point x="1144.0" y="688.0" type="move" name="top_deva"/>
    </contour>
  </outline>
</glyph>
<glyph name="dvL_BA" format="1">
  <advance width="1205"/>
  <outline>
    <contour>
      <point x="-20" y="637" type="line"/>
      <point x="1013" y="637" type="line"/>
      <point x="1013" y="447" type="line"/>
      <point x="1009" y="447" type="line"/>
      <point x="979" y="478"/>
      <point x="925" y="509"/>
      <point x="844" y="509" type="curve" smooth="yes"/>
      <point x="759" y="509"/>
      <point x="697" y="474"/>
      <point x="661" y="417" type="curve"/>
      <point x="657" y="417" type="line"/>
      <point x="631" y="454"/>
      <point x="588" y="480"/>
      <point x="535" y="480" type="curve" smooth="yes" name="hr01"/>
      <point x="455" y="480"/>
      <point x="411" y="424"/>
      <point x="395" y="360" type="curve"/>
      <point x="390" y="360" type="line"/>
      <point x="373" y="425"/>
      <point x="321" y="481"/>
      <point x="236" y="481" type="curve" smooth="yes" name="hr02"/>
      <point x="137" y="481"/>
      <point x="63" y="408"/>
      <point x="63" y="271" type="curve" smooth="yes"/>
      <point x="63" y="138"/>
      <point x="126" y="28"/>
      <point x="294" y="5" type="curve"/>
      <point x="310" y="68" type="line"/>
      <point x="173" y="93"/>
      <point x="137" y="164"/>
      <point x="137" y="252" type="curve" smooth="yes"/>
      <point x="137" y="283" type="line" smooth="yes"/>
      <point x="137" y="363"/>
      <point x="176" y="412"/>
      <point x="243" y="412" type="curve" smooth="yes"/>
      <point x="314" y="412"/>
      <point x="356" y="361"/>
      <point x="356" y="283" type="curve" smooth="yes"/>
      <point x="356" y="177" type="line"/>
      <point x="429" y="177" type="line"/>
      <point x="429" y="280" type="line" smooth="yes"/>
      <point x="429" y="355"/>
      <point x="468" y="413"/>
      <point x="534" y="413" type="curve" smooth="yes" name="hr03"/>
      <point x="588" y="413"/>
      <point x="622" y="384"/>
      <point x="635" y="340" type="curve"/>
      <point x="634" y="330"/>
      <point x="633" y="321"/>
      <point x="633" y="314" type="curve" smooth="yes"/>
      <point x="633" y="193"/>
      <point x="722" y="110"/>
      <point x="842" y="110" type="curve" smooth="yes"/>
      <point x="926" y="110"/>
      <point x="981" y="143"/>
      <point x="1009" y="177" type="curve"/>
      <point x="1013" y="177" type="line"/>
      <point x="1013" y="0" type="line"/>
      <point x="1087" y="0" type="line"/>
      <point x="1087" y="637" type="line"/>
      <point x="1225" y="637" type="line"/>
      <point x="1225" y="698" type="line"/>
      <point x="-20" y="698" type="line"/>
    </contour>
    <contour>
      <point x="988" y="227" type="line"/>
      <point x="961" y="254" type="line"/>
      <point x="797" y="410" type="line"/>
      <point x="773" y="429" type="line"/>
      <point x="773" y="432" type="line"/>
      <point x="797" y="445"/>
      <point x="823" y="448"/>
      <point x="852" y="448" type="curve" smooth="yes" name="hr04"/>
      <point x="946" y="448"/>
      <point x="1014" y="395"/>
      <point x="1014" y="348" type="curve" smooth="yes"/>
      <point x="1014" y="282" type="line" smooth="yes"/>
      <point x="1014" y="262"/>
      <point x="1006" y="243"/>
      <point x="991" y="227" type="curve"/>
    </contour>
    <contour>
      <point x="855" y="173" type="curve" smooth="yes"/>
      <point x="757" y="173"/>
      <point x="706" y="227"/>
      <point x="706" y="302" type="curve" smooth="yes"/>
      <point x="706" y="323" type="line" smooth="yes"/>
      <point x="706" y="353"/>
      <point x="715" y="379"/>
      <point x="733" y="400" type="curve"/>
      <point x="737" y="400" type="line"/>
      <point x="763" y="371" type="line"/>
      <point x="924" y="217" type="line"/>
      <point x="948" y="197" type="line"/>
      <point x="948" y="194" type="line"/>
      <point x="921" y="179"/>
      <point x="892" y="173"/>
    </contour>
    <contour>
      <point x="1087.0" y="0.0" type="move" name="bottom_deva"/>
    </contour>
    <contour>
      <point x="873.0" y="688.0" type="move" name="center_deva"/>
    </contour>
    <contour>
      <point x="1087.0" y="688.0" type="move" name="top_deva"/>
    </contour>
  </outline>
</glyph>
<glyph name="dvL_DDA" format="1">
  <advance width="1062"/>
  <outline>
    <contour>
      <point x="294" y="5" type="curve"/>
      <point x="310" y="68" type="line"/>
      <point x="173" y="93"/>
      <point x="137" y="163"/>
      <point x="137" y="252" type="curve" smooth="yes"/>
      <point x="137" y="283" type="line" smooth="yes"/>
      <point x="137" y="363"/>
      <point x="176" y="412"/>
      <point x="243" y="412" type="curve" smooth="yes"/>
      <point x="314" y="412"/>
      <point x="356" y="361"/>
      <point x="356" y="283" type="curve" smooth="yes"/>
      <point x="356" y="177" type="line"/>
      <point x="429" y="177" type="line"/>
      <point x="429" y="280" type="line" smooth="yes"/>
      <point x="429" y="355"/>
      <point x="468" y="413"/>
      <point x="534" y="413" type="curve" smooth="yes" name="hr01"/>
      <point x="570" y="413"/>
      <point x="596" y="401"/>
      <point x="614" y="380" type="curve"/>
      <point x="617" y="296"/>
      <point x="678" y="252"/>
      <point x="775" y="252" type="curve" smooth="yes"/>
      <point x="830" y="252" type="line" smooth="yes"/>
      <point x="892" y="252"/>
      <point x="929" y="224"/>
      <point x="929" y="177" type="curve" smooth="yes"/>
      <point x="929" y="157" type="line" smooth="yes"/>
      <point x="929" y="107"/>
      <point x="891" y="72"/>
      <point x="808" y="72" type="curve" smooth="yes"/>
      <point x="727" y="72"/>
      <point x="667" y="98"/>
      <point x="598" y="171" type="curve"/>
      <point x="554" y="122" type="line"/>
      <point x="622" y="42"/>
      <point x="719" y="7"/>
      <point x="810" y="7" type="curve" smooth="yes"/>
      <point x="942" y="7"/>
      <point x="1003" y="74"/>
      <point x="1003" y="167" type="curve" smooth="yes"/>
      <point x="1003" y="260"/>
      <point x="938" y="315"/>
      <point x="831" y="315" type="curve" smooth="yes"/>
      <point x="764" y="315" type="line" smooth="yes"/>
      <point x="711" y="315"/>
      <point x="684" y="340"/>
      <point x="684" y="376" type="curve" smooth="yes"/>
      <point x="684" y="394" type="line" smooth="yes"/>
      <point x="684" y="425"/>
      <point x="706" y="449"/>
      <point x="761" y="449" type="curve" smooth="yes" name="hr02"/>
      <point x="954" y="449" type="line"/>
      <point x="954" y="637" type="line"/>
      <point x="1082" y="637" type="line"/>
      <point x="1082" y="698" type="line"/>
      <point x="-20" y="698" type="line"/>
      <point x="-20" y="637" type="line"/>
      <point x="880" y="637" type="line"/>
      <point x="880" y="511" type="line"/>
      <point x="762" y="511" type="line" smooth="yes"/>
      <point x="693" y="511"/>
      <point x="650" y="487"/>
      <point x="630" y="446" type="curve"/>
      <point x="625" y="446" type="line"/>
      <point x="606" y="463"/>
      <point x="578" y="480"/>
      <point x="533" y="480" type="curve" smooth="yes" name="hr03"/>
      <point x="455" y="480"/>
      <point x="411" y="424"/>
      <point x="395" y="360" type="curve"/>
      <point x="390" y="360" type="line"/>
      <point x="373" y="425"/>
      <point x="321" y="481"/>
      <point x="236" y="481" type="curve" smooth="yes" name="hr04"/>
      <point x="137" y="481"/>
      <point x="63" y="408"/>
      <point x="63" y="271" type="curve" smooth="yes"/>
      <point x="63" y="138"/>
      <point x="127" y="28"/>
    </contour>
    <contour>
      <point x="839.0" y="10.0" type="move" name="bottom_deva"/>
    </contour>
    <contour>
      <point x="839.0" y="688.0" type="move" name="center_deva"/>
    </contour>
    <contour>
      <point x="954.0" y="688.0" type="move" name="top_deva"/>
    </contour>
  </outline>
</glyph>
<glyph name="dvL_DDHA" format="1">
  <advance width="1140"/>
  <outline>
    <contour>
      <point x="294" y="5" type="curve"/>
      <point x="310" y="68" type="line"/>
      <point x="173" y="93"/>
      <point x="137" y="164"/>
      <point x="137" y="252" type="curve" smooth="yes"/>
      <point x="137" y="283" type="line" smooth="yes"/>
      <point x="137" y="363"/>
      <point x="176" y="412"/>
      <point x="243" y="412" type="curve" smooth="yes"/>
      <point x="314" y="412"/>
      <point x="356" y="361"/>
      <point x="356" y="283" type="curve" smooth="yes"/>
      <point x="356" y="177" type="line"/>
      <point x="429" y="177" type="line"/>
      <point x="429" y="280" type="line" smooth="yes"/>
      <point x="429" y="355"/>
      <point x="468" y="412"/>
      <point x="534" y="412" type="curve" smooth="yes"/>
      <point x="594" y="412"/>
      <point x="628" y="375"/>
      <point x="637" y="321" type="curve"/>
      <point x="634" y="299"/>
      <point x="632" y="284"/>
      <point x="632" y="259" type="curve" smooth="yes"/>
      <point x="632" y="130"/>
      <point x="719" y="16"/>
      <point x="917" y="16" type="curve" smooth="yes"/>
      <point x="1041" y="16"/>
      <point x="1108" y="67"/>
      <point x="1108" y="154" type="curve" smooth="yes"/>
      <point x="1108" y="234"/>
      <point x="1050" y="280"/>
      <point x="968" y="280" type="curve" smooth="yes"/>
      <point x="878" y="280"/>
      <point x="829" y="227"/>
      <point x="829" y="142" type="curve" smooth="yes"/>
      <point x="829" y="82" type="line"/>
      <point x="753" y="102"/>
      <point x="707" y="159"/>
      <point x="707" y="237" type="curve" smooth="yes"/>
      <point x="707" y="274" type="line" smooth="yes"/>
      <point x="707" y="354"/>
      <point x="753" y="427"/>
      <point x="880" y="427" type="curve" smooth="yes" name="hr01"/>
      <point x="1031" y="427" type="line"/>
      <point x="1031" y="637" type="line"/>
      <point x="1160" y="637" type="line"/>
      <point x="1160" y="698" type="line"/>
      <point x="-20" y="698" type="line"/>
      <point x="-20" y="637" type="line"/>
      <point x="958" y="637" type="line"/>
      <point x="958" y="490" type="line"/>
      <point x="891" y="490" type="line" smooth="yes"/>
      <point x="784" y="490"/>
      <point x="712" y="453"/>
      <point x="674" y="400" type="curve"/>
      <point x="669" y="400" type="line"/>
      <point x="644" y="447"/>
      <point x="599" y="480"/>
      <point x="535" y="480" type="curve" smooth="yes" name="hr02"/>
      <point x="455" y="480"/>
      <point x="411" y="424"/>
      <point x="395" y="360" type="curve"/>
      <point x="390" y="360" type="line"/>
      <point x="373" y="425"/>
      <point x="321" y="481"/>
      <point x="236" y="481" type="curve" smooth="yes" name="hr03"/>
      <point x="137" y="481"/>
      <point x="63" y="408"/>
      <point x="63" y="271" type="curve" smooth="yes"/>
      <point x="63" y="138"/>
      <point x="126" y="28"/>
    </contour>
    <contour>
      <point x="942" y="74" type="curve" smooth="yes"/>
      <point x="895" y="74" type="line"/>
      <point x="895" y="142" type="line" smooth="yes"/>
      <point x="895" y="192"/>
      <point x="918" y="221"/>
      <point x="970" y="221" type="curve" smooth="yes"/>
      <point x="1014" y="221"/>
      <point x="1042" y="200"/>
      <point x="1042" y="155" type="curve" smooth="yes"/>
      <point x="1042" y="108"/>
      <point x="1007" y="74"/>
    </contour>
    <contour>
      <point x="952.0" y="19.0" type="move" name="bottom_deva"/>
    </contour>
    <contour>
      <point x="904.0" y="688.0" type="move" name="center_deva"/>
    </contour>
    <contour>
      <point x="1031.0" y="688.0" type="move" name="top_deva"/>
    </contour>
  </outline>
</glyph>
<glyph name="dvL_PHA" format="1">
  <advance width="1391"/>
  <outline>
    <contour>
      <point x="-20" y="637" type="line"/>
      <point x="609" y="637" type="line"/>
      <point x="609" y="463" type="line"/>
      <point x="605" y="461" type="line"/>
      <point x="586" y="472"/>
      <point x="565" y="480"/>
      <point x="535" y="480" type="curve" smooth="yes"/>
      <point x="455" y="480"/>
      <point x="411" y="424"/>
      <point x="395" y="360" type="curve"/>
      <point x="390" y="360" type="line"/>
      <point x="373" y="425"/>
      <point x="321" y="481"/>
      <point x="236" y="481" type="curve" smooth="yes" name="hr01"/>
      <point x="137" y="481"/>
      <point x="63" y="408"/>
      <point x="63" y="271" type="curve" smooth="yes"/>
      <point x="63" y="138"/>
      <point x="126" y="28"/>
      <point x="294" y="5" type="curve"/>
      <point x="310" y="68" type="line"/>
      <point x="173" y="93"/>
      <point x="137" y="164"/>
      <point x="137" y="252" type="curve" smooth="yes"/>
      <point x="137" y="283" type="line" smooth="yes"/>
      <point x="137" y="363"/>
      <point x="176" y="412"/>
      <point x="243" y="412" type="curve" smooth="yes"/>
      <point x="314" y="412"/>
      <point x="356" y="361"/>
      <point x="356" y="283" type="curve" smooth="yes"/>
      <point x="356" y="177" type="line"/>
      <point x="429" y="177" type="line"/>
      <point x="429" y="280" type="line" smooth="yes"/>
      <point x="429" y="355"/>
      <point x="468" y="413"/>
      <point x="534" y="413" type="curve" smooth="yes" name="hr02"/>
      <point x="569" y="413"/>
      <point x="596" y="400"/>
      <point x="612" y="383" type="curve"/>
      <point x="627" y="274"/>
      <point x="699" y="223"/>
      <point x="789" y="223" type="curve" smooth="yes"/>
      <point x="854" y="223"/>
      <point x="899" y="248"/>
      <point x="926" y="285" type="curve"/>
      <point x="930" y="285" type="line"/>
      <point x="930" y="0" type="line"/>
      <point x="1004" y="0" type="line"/>
      <point x="1004" y="250" type="line" smooth="yes"/>
      <point x="1004" y="352"/>
      <point x="1077" y="421"/>
      <point x="1164" y="421" type="curve" smooth="yes" name="hr03"/>
      <point x="1245" y="421"/>
      <point x="1277" y="374"/>
      <point x="1277" y="317" type="curve" smooth="yes"/>
      <point x="1277" y="303" type="line" smooth="yes"/>
      <point x="1277" y="238"/>
      <point x="1237" y="194"/>
      <point x="1147" y="174" type="curve"/>
      <point x="1173" y="107" type="line"/>
      <point x="1295" y="133"/>
      <point x="1348" y="212"/>
      <point x="1348" y="313" type="curve" smooth="yes"/>
      <point x="1348" y="411"/>
      <point x="1275" y="487"/>
      <point x="1175" y="487" type="curve" smooth="yes"/>
      <point x="1092" y="487"/>
      <point x="1039" y="444"/>
      <point x="1008" y="395" type="curve"/>
      <point x="1004" y="395" type="line"/>
      <point x="1004" y="637" type="line"/>
      <point x="1411" y="637" type="line"/>
      <point x="1411" y="698" type="line"/>
      <point x="-20" y="698" type="line"/>
    </contour>
    <contour>
      <point x="683" y="419" type="curve" smooth="yes"/>
      <point x="683" y="637" type="line"/>
      <point x="930" y="637" type="line"/>
      <point x="930" y="404" type="line" smooth="yes"/>
      <point x="930" y="335"/>
      <point x="880" y="289"/>
      <point x="797" y="289" type="curve" smooth="yes"/>
      <point x="722" y="289"/>
      <point x="683" y="327"/>
    </contour>
    <contour>
      <point x="1004.0" y="0.0" type="move" name="bottom_deva"/>
    </contour>
    <contour>
      <point x="962.0" y="688.0" type="move" name="center_deva"/>
    </contour>
    <contour>
      <point x="1004.0" y="688.0" type="move" name="top_deva"/>
    </contour>
  </outline>
</glyph>
<glyph name="dvL_TTA" format="1">
  <advance width="1120"/>
  <outline>
    <contour>
      <point x="294" y="5" type="curve"/>
      <point x="310" y="68" type="line"/>
      <point x="173" y="93"/>
      <point x="137" y="164"/>
      <point x="137" y="252" type="curve" smooth="yes"/>
      <point x="137" y="283" type="line" smooth="yes"/>
      <point x="137" y="363"/>
      <point x="176" y="412"/>
      <point x="243" y="412" type="curve" smooth="yes"/>
      <point x="314" y="412"/>
      <point x="356" y="361"/>
      <point x="356" y="283" type="curve" smooth="yes"/>
      <point x="356" y="177" type="line"/>
      <point x="429" y="177" type="line"/>
      <point x="429" y="280" type="line" smooth="yes"/>
      <point x="429" y="355"/>
      <point x="468" y="413"/>
      <point x="534" y="413" type="curve" smooth="yes" name="hr01"/>
      <point x="598" y="413"/>
      <point x="631" y="372"/>
      <point x="638" y="307" type="curve"/>
      <point x="635" y="282"/>
      <point x="634" y="267"/>
      <point x="634" y="247" type="curve" smooth="yes"/>
      <point x="634" y="105"/>
      <point x="730" y="14"/>
      <point x="873" y="14" type="curve" smooth="yes"/>
      <point x="978" y="14"/>
      <point x="1043" y="53"/>
      <point x="1083" y="108" type="curve"/>
      <point x="1037" y="158" type="line"/>
      <point x="996" y="105"/>
      <point x="947" y="79"/>
      <point x="873" y="79" type="curve" smooth="yes"/>
      <point x="768" y="79"/>
      <point x="711" y="141"/>
      <point x="711" y="230" type="curve" smooth="yes"/>
      <point x="711" y="265" type="line" smooth="yes"/>
      <point x="711" y="356"/>
      <point x="764" y="415"/>
      <point x="885" y="415" type="curve" smooth="yes" name="hr02"/>
      <point x="1013" y="415" type="line"/>
      <point x="1013" y="637" type="line"/>
      <point x="1140" y="637" type="line"/>
      <point x="1140" y="698" type="line"/>
      <point x="-20" y="698" type="line"/>
      <point x="-20" y="637" type="line"/>
      <point x="940" y="637" type="line"/>
      <point x="940" y="478" type="line"/>
      <point x="884" y="478" type="line" smooth="yes"/>
      <point x="787" y="478"/>
      <point x="716" y="447"/>
      <point x="677" y="392" type="curve"/>
      <point x="673" y="392" type="line"/>
      <point x="648" y="445"/>
      <point x="603" y="480"/>
      <point x="537" y="480" type="curve" smooth="yes" name="hr03"/>
      <point x="455" y="480"/>
      <point x="411" y="424"/>
      <point x="395" y="360" type="curve"/>
      <point x="390" y="360" type="line"/>
      <point x="373" y="425"/>
      <point x="321" y="481"/>
      <point x="236" y="481" type="curve" smooth="yes" name="hr04"/>
      <point x="137" y="481"/>
      <point x="63" y="408"/>
      <point x="63" y="271" type="curve" smooth="yes"/>
      <point x="63" y="138"/>
      <point x="126" y="28"/>
    </contour>
    <contour>
      <point x="918.0" y="14.0" type="move" name="bottom_deva"/>
    </contour>
    <contour>
      <point x="921.0" y="688.0" type="move" name="center_deva"/>
    </contour>
    <contour>
      <point x="1013.0" y="688.0" type="move" name="top_deva"/>
    </contour>
  </outline>
</glyph>
<glyph name="dvL_YA" format="1">
  <advance width="1223"/>
  <outline>
    <contour>
      <point x="-20" y="637" type="line"/>
      <point x="784" y="637" type="line"/>
      <point x="784" y="523" type="line" smooth="yes"/>
      <point x="784" y="463"/>
      <point x="763" y="436"/>
      <point x="711" y="436" type="curve" smooth="yes"/>
      <point x="644" y="436" type="line"/>
      <point x="617" y="463"/>
      <point x="579" y="480"/>
      <point x="535" y="480" type="curve" smooth="yes" name="hr01"/>
      <point x="455" y="480"/>
      <point x="411" y="424"/>
      <point x="395" y="360" type="curve"/>
      <point x="390" y="360" type="line"/>
      <point x="373" y="425"/>
      <point x="321" y="481"/>
      <point x="236" y="481" type="curve" smooth="yes" name="hr02"/>
      <point x="137" y="481"/>
      <point x="63" y="408"/>
      <point x="63" y="271" type="curve" smooth="yes"/>
      <point x="63" y="138"/>
      <point x="127" y="28"/>
      <point x="294" y="5" type="curve"/>
      <point x="310" y="68" type="line"/>
      <point x="173" y="93"/>
      <point x="137" y="163"/>
      <point x="137" y="252" type="curve" smooth="yes"/>
      <point x="137" y="283" type="line" smooth="yes"/>
      <point x="137" y="363"/>
      <point x="176" y="412"/>
      <point x="243" y="412" type="curve" smooth="yes"/>
      <point x="314" y="412"/>
      <point x="356" y="361"/>
      <point x="356" y="283" type="curve" smooth="yes"/>
      <point x="356" y="177" type="line"/>
      <point x="429" y="177" type="line"/>
      <point x="429" y="280" type="line" smooth="yes"/>
      <point x="429" y="355"/>
      <point x="468" y="413"/>
      <point x="534" y="413" type="curve" smooth="yes" name="hr03"/>
      <point x="570" y="413"/>
      <point x="596" y="401"/>
      <point x="614" y="380" type="curve"/>
      <point x="614" y="359" type="line" smooth="yes"/>
      <point x="614" y="217"/>
      <point x="703" y="134"/>
      <point x="841" y="134" type="curve" smooth="yes"/>
      <point x="933" y="134"/>
      <point x="992" y="166"/>
      <point x="1027" y="219" type="curve"/>
      <point x="1031" y="219" type="line"/>
      <point x="1031" y="0" type="line"/>
      <point x="1105" y="0" type="line"/>
      <point x="1105" y="637" type="line"/>
      <point x="1243" y="637" type="line"/>
      <point x="1243" y="698" type="line"/>
      <point x="-20" y="698" type="line"/>
    </contour>
    <contour>
      <point x="846" y="203" type="curve" smooth="yes"/>
      <point x="748" y="203"/>
      <point x="688" y="241"/>
      <point x="688" y="338" type="curve" smooth="yes"/>
      <point x="688" y="376" type="line" name="hr04"/>
      <point x="720" y="376" type="line" smooth="yes"/>
      <point x="810" y="376"/>
      <point x="858" y="433"/>
      <point x="858" y="523" type="curve" smooth="yes"/>
      <point x="858" y="637" type="line"/>
      <point x="1031" y="637" type="line"/>
      <point x="1031" y="339" type="line" smooth="yes"/>
      <point x="1031" y="262"/>
      <point x="962" y="203"/>
    </contour>
    <contour>
      <point x="1105.0" y="0.0" type="move" name="bottom_deva"/>
    </contour>
    <contour>
      <point x="962.0" y="688.0" type="move" name="center_deva"/>
    </contour>
    <contour>
      <point x="1105.0" y="688.0" type="move" name="top_deva"/>
    </contour>
  </outline>
</glyph>
<glyph name="dvM_CA" format="1">
  <advance width="1055"/>
  <outline>
    <contour>
      <point x="-20" y="637" type="line" name="hr00"/>
      <point x="130" y="637" type="line"/>
      <point x="130" y="321" type="line"/>
      <point x="100" y="311"/>
      <point x="84" y="286"/>
      <point x="84" y="249" type="curve" smooth="yes"/>
      <point x="84" y="201"/>
      <point x="111" y="172"/>
      <point x="162" y="172" type="curve" smooth="yes"/>
      <point x="179" y="172"/>
      <point x="194" y="175"/>
      <point x="204" y="180" type="curve"/>
      <point x="204" y="263" type="line"/>
      <point x="495" y="263" type="line"/>
      <point x="502" y="172"/>
      <point x="576" y="105"/>
      <point x="682" y="105" type="curve" smooth="yes"/>
      <point x="771" y="105"/>
      <point x="827" y="148"/>
      <point x="859" y="196" type="curve"/>
      <point x="863" y="196" type="line"/>
      <point x="863" y="0" type="line"/>
      <point x="937" y="0" type="line"/>
      <point x="937" y="637" type="line"/>
      <point x="1075" y="637" type="line"/>
      <point x="1075" y="698" type="line"/>
      <point x="-20" y="698" type="line"/>
    </contour>
    <contour>
      <point x="863" y="321" type="line" smooth="yes"/>
      <point x="863" y="240"/>
      <point x="790" y="171"/>
      <point x="692" y="171" type="curve" smooth="yes"/>
      <point x="615" y="171"/>
      <point x="567" y="215"/>
      <point x="567" y="289" type="curve" smooth="yes"/>
      <point x="567" y="364"/>
      <point x="612" y="414"/>
      <point x="675" y="419" type="curve"/>
      <point x="732" y="419" type="line"/>
      <point x="732" y="479" type="line"/>
      <point x="393" y="479" type="line"/>
      <point x="393" y="416" type="line"/>
      <point x="494" y="416" type="line"/>
      <point x="566" y="417" type="line"/>
      <point x="566" y="413" type="line"/>
      <point x="532" y="393"/>
      <point x="510" y="362"/>
      <point x="500" y="326" type="curve"/>
      <point x="204" y="326" type="line"/>
      <point x="204" y="637" type="line"/>
      <point x="863" y="637" type="line"/>
    </contour>
    <contour>
      <point x="937.0" y="0.0" type="move" name="bottom_deva"/>
    </contour>
    <contour>
      <point x="718.0" y="688.0" type="move" name="center_deva"/>
    </contour>
    <contour>
      <point x="937.0" y="688.0" type="move" name="top_deva"/>
    </contour>
  </outline>
</glyph>
<glyph name="dvM_DA" format="1">
  <advance width="943"/>
  <outline>
    <contour>
      <point x="-20" y="637" type="line" name="hr00"/>
      <point x="129" y="637" type="line"/>
      <point x="129" y="370" type="line"/>
      <point x="100" y="359"/>
      <point x="85" y="334"/>
      <point x="85" y="298" type="curve" smooth="yes"/>
      <point x="85" y="250"/>
      <point x="112" y="221"/>
      <point x="163" y="221" type="curve" smooth="yes"/>
      <point x="180" y="221"/>
      <point x="195" y="224"/>
      <point x="205" y="229" type="curve"/>
      <point x="205" y="312" type="line"/>
      <point x="436" y="312" type="line"/>
      <point x="435" y="302"/>
      <point x="435" y="295"/>
      <point x="435" y="286" type="curve" smooth="yes"/>
      <point x="435" y="151"/>
      <point x="536" y="66"/>
      <point x="685" y="66" type="curve" smooth="yes"/>
      <point x="716" y="66"/>
      <point x="745" y="69"/>
      <point x="770" y="75" type="curve"/>
      <point x="783" y="36" type="line"/>
      <point x="818" y="-62" type="line"/>
      <point x="877" y="-44" type="line"/>
      <point x="842" y="53" type="line"/>
      <point x="826" y="92" type="line"/>
      <point x="857" y="108"/>
      <point x="869" y="128"/>
      <point x="869" y="156" type="curve" smooth="yes"/>
      <point x="869" y="200"/>
      <point x="844" y="231"/>
      <point x="794" y="231" type="curve" smooth="yes"/>
      <point x="766" y="231"/>
      <point x="741" y="221"/>
      <point x="723" y="209" type="curve"/>
      <point x="747" y="134" type="line"/>
      <point x="732" y="131"/>
      <point x="713" y="128"/>
      <point x="689" y="128" type="curve" smooth="yes"/>
      <point x="571" y="128"/>
      <point x="513" y="186"/>
      <point x="513" y="271" type="curve" smooth="yes"/>
      <point x="513" y="296" type="line" smooth="yes"/>
      <point x="513" y="374"/>
      <point x="560" y="434"/>
      <point x="677" y="434" type="curve" smooth="yes"/>
      <point x="832" y="434" type="line"/>
      <point x="832" y="637" type="line"/>
      <point x="963" y="637" type="line"/>
      <point x="963" y="698" type="line"/>
      <point x="-20" y="698" type="line"/>
    </contour>
    <contour>
      <point x="682" y="497" type="line" smooth="yes"/>
      <point x="563" y="497"/>
      <point x="484" y="452"/>
      <point x="452" y="375" type="curve"/>
      <point x="203" y="375" type="line"/>
      <point x="203" y="637" type="line"/>
      <point x="758" y="637" type="line"/>
      <point x="758" y="497" type="line"/>
    </contour>
    <contour>
      <point x="877.0" y="-49.0" type="move" name="bottom_deva"/>
    </contour>
    <contour>
      <point x="679.0" y="688.0" type="move" name="center_deva"/>
    </contour>
    <contour>
      <point x="832.0" y="688.0" type="move" name="top_deva"/>
    </contour>
  </outline>
</glyph>
<glyph name="dvNN_DDA" format="1">
  <advance width="1010"/>
  <outline>
    <contour>
      <point x="249" y="212" type="curve"/>
      <point x="346" y="212"/>
      <point x="416" y="271"/>
      <point x="416" y="384" type="curve" smooth="yes"/>
      <point x="416" y="637" type="line"/>
      <point x="828" y="637" type="line"/>
      <point x="828" y="511" type="line"/>
      <point x="710" y="511" type="line" smooth="yes"/>
      <point x="613" y="511"/>
      <point x="562" y="462"/>
      <point x="562" y="387" type="curve" smooth="yes"/>
      <point x="562" y="299"/>
      <point x="623" y="252"/>
      <point x="723" y="252" type="curve" smooth="yes" name="hr01"/>
      <point x="778" y="252" type="line" smooth="yes"/>
      <point x="840" y="252"/>
      <point x="877" y="224"/>
      <point x="877" y="177" type="curve" smooth="yes"/>
      <point x="877" y="157" type="line" smooth="yes"/>
      <point x="877" y="107"/>
      <point x="839" y="72"/>
      <point x="756" y="72" type="curve" smooth="yes"/>
      <point x="675" y="72"/>
      <point x="615" y="98"/>
      <point x="546" y="171" type="curve"/>
      <point x="502" y="122" type="line"/>
      <point x="570" y="42"/>
      <point x="667" y="7"/>
      <point x="758" y="7" type="curve" smooth="yes"/>
      <point x="890" y="7"/>
      <point x="951" y="74"/>
      <point x="951" y="167" type="curve" smooth="yes"/>
      <point x="951" y="260"/>
      <point x="886" y="315"/>
      <point x="779" y="315" type="curve" smooth="yes"/>
      <point x="712" y="315" type="line" smooth="yes"/>
      <point x="659" y="315"/>
      <point x="632" y="340"/>
      <point x="632" y="376" type="curve" smooth="yes"/>
      <point x="632" y="394" type="line" smooth="yes"/>
      <point x="632" y="425"/>
      <point x="654" y="449"/>
      <point x="709" y="449" type="curve" smooth="yes"/>
      <point x="902" y="449" type="line" name="hr02"/>
      <point x="902" y="637" type="line"/>
      <point x="1030" y="637" type="line"/>
      <point x="1030" y="698" type="line"/>
      <point x="-20" y="698" type="line"/>
      <point x="-20" y="637" type="line"/>
      <point x="82" y="637" type="line"/>
      <point x="82" y="384" type="line" smooth="yes"/>
      <point x="82" y="271"/>
      <point x="152" y="212"/>
    </contour>
    <contour>
      <point x="156" y="371" type="curve" smooth="yes"/>
      <point x="156" y="637" type="line"/>
      <point x="342" y="637" type="line"/>
      <point x="342" y="371" type="line" smooth="yes"/>
      <point x="342" y="308"/>
      <point x="308" y="275"/>
      <point x="249" y="275" type="curve"/>
      <point x="190" y="275"/>
      <point x="156" y="308"/>
    </contour>
    <contour>
      <point x="787.0" y="10.0" type="move" name="bottom_deva"/>
    </contour>
    <contour>
      <point x="787.0" y="688.0" type="move" name="center_deva"/>
    </contour>
    <contour>
      <point x="902.0" y="688.0" type="move" name="top_deva"/>
    </contour>
  </outline>
</glyph>
<glyph name="dvNY_CHA" format="1">
  <advance width="1281"/>
  <outline>
    <contour>
      <point x="277" y="108" type="curve" smooth="yes"/>
      <point x="388" y="108"/>
      <point x="453" y="170"/>
      <point x="470" y="262" type="curve"/>
      <point x="600" y="262" type="line"/>
      <point x="602" y="260" type="line"/>
      <point x="599" y="246"/>
      <point x="598" y="233"/>
      <point x="598" y="217" type="curve" smooth="yes"/>
      <point x="598" y="114"/>
      <point x="673" y="12"/>
      <point x="864" y="12" type="curve" smooth="yes"/>
      <point x="899" y="12" type="line" smooth="yes"/>
      <point x="1099" y="12"/>
      <point x="1239" y="149"/>
      <point x="1239" y="352" type="curve" smooth="yes"/>
      <point x="1239" y="456"/>
      <point x="1203" y="512"/>
      <point x="1135" y="527" type="curve"/>
      <point x="1135" y="637" type="line"/>
      <point x="1301" y="637" type="line"/>
      <point x="1301" y="698" type="line"/>
      <point x="-20" y="698" type="line"/>
      <point x="-20" y="637" type="line"/>
      <point x="663" y="637" type="line"/>
      <point x="663" y="633" type="line"/>
      <point x="634" y="612"/>
      <point x="610" y="572"/>
      <point x="610" y="521" type="curve" smooth="yes" name="hr01"/>
      <point x="610" y="459"/>
      <point x="643" y="408"/>
      <point x="708" y="383" type="curve"/>
      <point x="708" y="378" type="line"/>
      <point x="677" y="368"/>
      <point x="651" y="351"/>
      <point x="632" y="326" type="curve"/>
      <point x="474" y="326" type="line"/>
      <point x="467" y="430"/>
      <point x="389" y="505"/>
      <point x="272" y="505" type="curve" smooth="yes"/>
      <point x="225" y="505"/>
      <point x="191" y="493"/>
      <point x="163" y="478" type="curve"/>
      <point x="185" y="419" type="line"/>
      <point x="215" y="434"/>
      <point x="244" y="443"/>
      <point x="275" y="443" type="curve" smooth="yes"/>
      <point x="359" y="443"/>
      <point x="404" y="393"/>
      <point x="404" y="326" type="curve" smooth="yes"/>
      <point x="404" y="297" type="line" smooth="yes"/>
      <point x="404" y="221"/>
      <point x="362" y="172"/>
      <point x="274" y="172" type="curve" smooth="yes"/>
      <point x="191" y="172"/>
      <point x="129" y="225"/>
      <point x="95" y="361" type="curve"/>
      <point x="35" y="335" type="line"/>
      <point x="68" y="190"/>
      <point x="154" y="108"/>
    </contour>
    <contour>
      <point x="854" y="77" type="line" smooth="yes"/>
      <point x="730" y="77"/>
      <point x="674" y="133"/>
      <point x="674" y="217" type="curve" smooth="yes" name="hr02"/>
      <point x="674" y="298"/>
      <point x="717" y="346"/>
      <point x="801" y="346" type="curve" smooth="yes"/>
      <point x="868" y="346" type="line"/>
      <point x="868" y="412" type="line"/>
      <point x="800" y="412" type="line" smooth="yes"/>
      <point x="726" y="412"/>
      <point x="681" y="457"/>
      <point x="681" y="522" type="curve" smooth="yes" name="hr03"/>
      <point x="681" y="584"/>
      <point x="719" y="637"/>
      <point x="794" y="637" type="curve" smooth="yes"/>
      <point x="1061" y="637" type="line"/>
      <point x="1061" y="527" type="line"/>
      <point x="999" y="513"/>
      <point x="957" y="458"/>
      <point x="957" y="367" type="curve" smooth="yes"/>
      <point x="957" y="246"/>
      <point x="1017" y="190"/>
      <point x="1118" y="190" type="curve" smooth="yes"/>
      <point x="1134" y="190" type="line"/>
      <point x="1134" y="186" type="line"/>
      <point x="1090" y="121"/>
      <point x="1008" y="77"/>
      <point x="907" y="77" type="curve" smooth="yes"/>
    </contour>
    <contour>
      <point x="1109" y="246" type="line" smooth="yes"/>
      <point x="1053" y="246"/>
      <point x="1023" y="276"/>
      <point x="1023" y="346" type="curve" smooth="yes"/>
      <point x="1023" y="382" type="line" smooth="yes"/>
      <point x="1023" y="441"/>
      <point x="1048" y="475"/>
      <point x="1096" y="475" type="curve" smooth="yes"/>
      <point x="1144" y="475"/>
      <point x="1175" y="445"/>
      <point x="1175" y="382" type="curve" smooth="yes"/>
      <point x="1175" y="339" type="line" smooth="yes"/>
      <point x="1175" y="305"/>
      <point x="1170" y="274"/>
      <point x="1161" y="246" type="curve"/>
    </contour>
    <contour>
      <point x="951.0" y="14.0" type="move" name="bottom_deva"/>
    </contour>
    <contour>
      <point x="919.0" y="688.0" type="move" name="center_deva"/>
    </contour>
    <contour>
      <point x="1135.0" y="688.0" type="move" name="top_deva"/>
    </contour>
  </outline>
</glyph>
<glyph name="dvNY_JA" format="1">
  <advance width="789"/>
  <outline>
    <contour>
      <point x="331" y="-54" type="curve" smooth="yes" name="hr00"/>
      <point x="424" y="-54"/>
      <point x="489" y="-2"/>
      <point x="489" y="81" type="curve" smooth="yes"/>
      <point x="489" y="138"/>
      <point x="453" y="179"/>
      <point x="418" y="195" type="curve"/>
      <point x="417" y="198" type="line"/>
      <point x="598" y="214" type="line"/>
      <point x="598" y="-19" type="line"/>
      <point x="671" y="-19" type="line"/>
      <point x="671" y="637" type="line"/>
      <point x="809" y="637" type="line"/>
      <point x="809" y="698" type="line"/>
      <point x="-20" y="698" type="line"/>
      <point x="-20" y="637" type="line"/>
      <point x="598" y="637" type="line"/>
      <point x="598" y="423" type="line"/>
      <point x="393" y="444" type="line"/>
      <point x="387" y="523"/>
      <point x="324" y="577"/>
      <point x="229" y="577" type="curve" smooth="yes"/>
      <point x="193" y="577"/>
      <point x="160" y="569"/>
      <point x="137" y="560" type="curve"/>
      <point x="157" y="507" type="line"/>
      <point x="181" y="516"/>
      <point x="207" y="521"/>
      <point x="229" y="521" type="curve" smooth="yes"/>
      <point x="290" y="521"/>
      <point x="325" y="486"/>
      <point x="325" y="441" type="curve" smooth="yes"/>
      <point x="325" y="427" type="line" smooth="yes"/>
      <point x="325" y="378"/>
      <point x="292" y="343"/>
      <point x="228" y="343" type="curve" smooth="yes"/>
      <point x="163" y="343"/>
      <point x="121" y="374"/>
      <point x="84" y="461" type="curve"/>
      <point x="26" y="439" type="line"/>
      <point x="62" y="347"/>
      <point x="127" y="284"/>
      <point x="229" y="284" type="curve" smooth="yes"/>
      <point x="313" y="284"/>
      <point x="370" y="323"/>
      <point x="388" y="385" type="curve"/>
      <point x="598" y="362" type="line"/>
      <point x="598" y="272" type="line"/>
      <point x="290" y="243" type="line"/>
      <point x="296" y="187" type="line"/>
      <point x="308" y="188" type="line" smooth="yes"/>
      <point x="375" y="194"/>
      <point x="422" y="143"/>
      <point x="422" y="84" type="curve" smooth="yes"/>
      <point x="422" y="40"/>
      <point x="394" y="3"/>
      <point x="326" y="3" type="curve" smooth="yes"/>
      <point x="271" y="3"/>
      <point x="213" y="27"/>
      <point x="186" y="165" type="curve"/>
      <point x="124" y="148" type="line"/>
      <point x="154" y="3"/>
      <point x="231" y="-54"/>
    </contour>
    <contour>
      <point x="671.0" y="-19.0" type="move" name="bottom_deva"/>
    </contour>
    <contour>
      <point x="473.0" y="688.0" type="move" name="center_deva"/>
    </contour>
    <contour>
      <point x="671.0" y="688.0" type="move" name="top_deva"/>
    </contour>
  </outline>
</glyph>
<glyph name="dvN" format="1">
  <advance width="327"/>
  <outline>
    <contour>
      <point x="-20" y="637" type="line"/>
      <point x="374" y="637" type="line"/>
      <point x="374" y="698" type="line"/>
      <point x="-20" y="698" type="line"/>
    </contour>
    <contour>
      <point x="142" y="257" type="curve" smooth="yes"/>
      <point x="154" y="257"/>
      <point x="167" y="260"/>
      <point x="177" y="265" type="curve"/>
      <point x="177" y="360" type="line"/>
      <point x="447" y="360" type="line" name="hr01"/>
      <point x="447" y="423" type="line"/>
      <point x="156" y="423" type="line" smooth="yes"/>
      <point x="92" y="423"/>
      <point x="64" y="392"/>
      <point x="64" y="339" type="curve" smooth="yes"/>
      <point x="64" y="289"/>
      <point x="88" y="257"/>
    </contour>
  </outline>
</glyph>
<glyph name="dvN_DH" format="1">
  <advance width="693"/>
  <outline>
    <contour>
      <point x="566" y="109" type="curve" smooth="yes"/>
      <point x="691" y="109"/>
      <point x="788" y="180"/>
      <point x="840" y="296" type="curve"/>
      <point x="802" y="350" type="line"/>
      <point x="752" y="241"/>
      <point x="676" y="175"/>
      <point x="569" y="175" type="curve" smooth="yes"/>
      <point x="481" y="175"/>
      <point x="440" y="218"/>
      <point x="440" y="278" type="curve" smooth="yes"/>
      <point x="440" y="341"/>
      <point x="480" y="386"/>
      <point x="563" y="386" type="curve" smooth="yes"/>
      <point x="632" y="386" type="line"/>
      <point x="632" y="450" type="line"/>
      <point x="560" y="450" type="line" smooth="yes"/>
      <point x="467" y="450"/>
      <point x="417" y="494"/>
      <point x="417" y="555" type="curve" smooth="yes" name="hr01"/>
      <point x="417" y="607"/>
      <point x="451" y="640"/>
      <point x="507" y="640" type="curve" smooth="yes"/>
      <point x="537" y="640"/>
      <point x="562" y="631"/>
      <point x="588" y="616" type="curve"/>
      <point x="611" y="668" type="line"/>
      <point x="589" y="684"/>
      <point x="548" y="701"/>
      <point x="501" y="701" type="curve" smooth="yes"/>
      <point x="392" y="701"/>
      <point x="343" y="635"/>
      <point x="343" y="562" type="curve" smooth="yes"/>
      <point x="343" y="484"/>
      <point x="396" y="433"/>
      <point x="470" y="419" type="curve"/>
      <point x="470" y="413" type="line"/>
      <point x="447" y="407"/>
      <point x="427" y="397"/>
      <point x="411" y="383" type="curve"/>
      <point x="156" y="383" type="line" smooth="yes"/>
      <point x="92" y="383"/>
      <point x="64" y="352"/>
      <point x="64" y="299" type="curve" smooth="yes"/>
      <point x="64" y="249"/>
      <point x="88" y="217"/>
      <point x="142" y="217" type="curve" smooth="yes"/>
      <point x="154" y="217"/>
      <point x="167" y="220"/>
      <point x="177" y="225" type="curve"/>
      <point x="177" y="320" type="line"/>
      <point x="365" y="320" type="line"/>
      <point x="368" y="317" type="line"/>
      <point x="363" y="299"/>
      <point x="362" y="287"/>
      <point x="362" y="273" type="curve" smooth="yes" name="hr02"/>
      <point x="362" y="184"/>
      <point x="431" y="109"/>
    </contour>
    <contour>
      <point x="-20" y="637" type="line"/>
      <point x="296" y="637" type="line"/>
      <point x="296" y="698" type="line"/>
      <point x="-20" y="698" type="line"/>
    </contour>
  </outline>
</glyph>
<glyph name="dvN_DH_YA" format="1">
  <advance width="1374"/>
  <outline>
    <contour>
      <point x="1183" y="0" type="line"/>
      <point x="1257" y="0" type="line"/>
      <point x="1257" y="637" type="line"/>
      <point x="1394" y="637" type="line"/>
      <point x="1394" y="698" type="line"/>
      <point x="727" y="698" type="line"/>
      <point x="727" y="637" type="line"/>
      <point x="935" y="637" type="line"/>
      <point x="935" y="523" type="line" smooth="yes"/>
      <point x="935" y="463"/>
      <point x="914" y="436"/>
      <point x="862" y="436" type="curve" smooth="yes"/>
      <point x="765" y="436" type="line"/>
      <point x="765" y="359" type="line" smooth="yes"/>
      <point x="765" y="336"/>
      <point x="767" y="314"/>
      <point x="772" y="294" type="curve"/>
      <point x="732" y="225"/>
      <point x="667" y="175"/>
      <point x="570" y="175" type="curve" smooth="yes"/>
      <point x="482" y="175"/>
      <point x="441" y="218"/>
      <point x="441" y="278" type="curve" smooth="yes"/>
      <point x="441" y="341"/>
      <point x="481" y="386"/>
      <point x="564" y="386" type="curve" smooth="yes" name="hr01"/>
      <point x="633" y="386" type="line"/>
      <point x="633" y="450" type="line"/>
      <point x="561" y="450" type="line" smooth="yes"/>
      <point x="468" y="450"/>
      <point x="418" y="494"/>
      <point x="418" y="555" type="curve" smooth="yes"/>
      <point x="418" y="607"/>
      <point x="452" y="640"/>
      <point x="508" y="640" type="curve" smooth="yes"/>
      <point x="538" y="640"/>
      <point x="563" y="631"/>
      <point x="589" y="617" type="curve"/>
      <point x="612" y="668" type="line"/>
      <point x="590" y="684"/>
      <point x="549" y="701"/>
      <point x="502" y="701" type="curve" smooth="yes"/>
      <point x="393" y="701"/>
      <point x="344" y="635"/>
      <point x="344" y="562" type="curve" smooth="yes"/>
      <point x="344" y="484"/>
      <point x="397" y="433"/>
      <point x="471" y="419" type="curve"/>
      <point x="471" y="413" type="line"/>
      <point x="448" y="407"/>
      <point x="428" y="397"/>
      <point x="412" y="383" type="curve"/>
      <point x="156" y="383" type="line" smooth="yes"/>
      <point x="92" y="383"/>
      <point x="64" y="352"/>
      <point x="64" y="299" type="curve" smooth="yes"/>
      <point x="64" y="249"/>
      <point x="88" y="217"/>
      <point x="142" y="217" type="curve" smooth="yes"/>
      <point x="154" y="217"/>
      <point x="167" y="220"/>
      <point x="177" y="225" type="curve"/>
      <point x="177" y="320" type="line"/>
      <point x="365" y="320" type="line"/>
      <point x="369" y="317" type="line"/>
      <point x="364" y="299"/>
      <point x="363" y="287"/>
      <point x="363" y="273" type="curve" smooth="yes" name="hr02"/>
      <point x="363" y="184"/>
      <point x="432" y="109"/>
      <point x="567" y="109" type="curve" smooth="yes"/>
      <point x="678" y="109"/>
      <point x="754" y="160"/>
      <point x="799" y="223" type="curve"/>
      <point x="804" y="223" type="line"/>
      <point x="840" y="165"/>
      <point x="907" y="134"/>
      <point x="992" y="134" type="curve" smooth="yes" name="hr03"/>
      <point x="1084" y="134"/>
      <point x="1143" y="166"/>
      <point x="1179" y="219" type="curve"/>
      <point x="1183" y="219" type="line"/>
    </contour>
    <contour>
      <point x="-20" y="637" type="line"/>
      <point x="296" y="637" type="line"/>
      <point x="296" y="698" type="line"/>
      <point x="-20" y="698" type="line"/>
    </contour>
    <contour>
      <point x="997" y="203" type="curve" smooth="yes"/>
      <point x="899" y="203"/>
      <point x="839" y="241"/>
      <point x="839" y="338" type="curve" smooth="yes"/>
      <point x="839" y="376" type="line"/>
      <point x="871" y="376" type="line" smooth="yes"/>
      <point x="961" y="376"/>
      <point x="1009" y="433"/>
      <point x="1009" y="523" type="curve" smooth="yes"/>
      <point x="1009" y="637" type="line"/>
      <point x="1183" y="637" type="line"/>
      <point x="1183" y="339" type="line" smooth="yes"/>
      <point x="1183" y="262"/>
      <point x="1113" y="203"/>
    </contour>
    <contour>
      <point x="1257.0" y="0.0" type="move" name="bottom_deva"/>
    </contour>
    <contour>
      <point x="1113.0" y="688.0" type="move" name="center_deva"/>
    </contour>
    <contour>
      <point x="1257.0" y="688.0" type="move" name="top_deva"/>
    </contour>
  </outline>
</glyph>
<glyph name="dvN_TTA" format="1">
  <advance width="864"/>
  <outline>
    <contour>
      <point x="617" y="14" type="curve" smooth="yes" name="hr00"/>
      <point x="722" y="14"/>
      <point x="787" y="53"/>
      <point x="827" y="108" type="curve"/>
      <point x="781" y="158" type="line"/>
      <point x="740" y="105"/>
      <point x="691" y="79"/>
      <point x="617" y="79" type="curve" smooth="yes"/>
      <point x="512" y="79"/>
      <point x="455" y="141"/>
      <point x="455" y="230" type="curve" smooth="yes"/>
      <point x="455" y="265" type="line" smooth="yes"/>
      <point x="455" y="356"/>
      <point x="508" y="415"/>
      <point x="629" y="415" type="curve" smooth="yes"/>
      <point x="757" y="415" type="line"/>
      <point x="757" y="637" type="line"/>
      <point x="884" y="637" type="line"/>
      <point x="884" y="698" type="line"/>
      <point x="-20" y="698" type="line"/>
      <point x="-20" y="637" type="line"/>
      <point x="684" y="637" type="line"/>
      <point x="684" y="478" type="line"/>
      <point x="628" y="478" type="line" smooth="yes"/>
      <point x="528" y="478"/>
      <point x="453" y="444"/>
      <point x="411" y="383" type="curve"/>
      <point x="156" y="383" type="line" smooth="yes"/>
      <point x="92" y="383"/>
      <point x="64" y="352"/>
      <point x="64" y="299" type="curve" smooth="yes"/>
      <point x="64" y="249"/>
      <point x="88" y="217"/>
      <point x="142" y="217" type="curve" smooth="yes"/>
      <point x="154" y="217"/>
      <point x="167" y="220"/>
      <point x="177" y="225" type="curve"/>
      <point x="177" y="320" type="line"/>
      <point x="382" y="320" type="line"/>
      <point x="377" y="297"/>
      <point x="374" y="273"/>
      <point x="374" y="247" type="curve" smooth="yes"/>
      <point x="374" y="104"/>
      <point x="474" y="14"/>
    </contour>
    <contour>
      <point x="662.0" y="14.0" type="move" name="bottom_deva"/>
    </contour>
    <contour>
      <point x="665.0" y="688.0" type="move" name="center_deva"/>
    </contour>
    <contour>
      <point x="757.0" y="688.0" type="move" name="top_deva"/>
    </contour>
  </outline>
</glyph>
<glyph name="dvPH_PA" format="1">
  <advance width="1253"/>
  <outline>
    <contour>
      <point x="414" y="0" type="line" name="hr00"/>
      <point x="488" y="0" type="line"/>
      <point x="488" y="244" type="line" smooth="yes"/>
      <point x="488" y="354"/>
      <point x="554" y="418"/>
      <point x="632" y="418" type="curve" smooth="yes"/>
      <point x="683" y="418"/>
      <point x="726" y="396"/>
      <point x="756" y="329" type="curve" smooth="yes"/>
      <point x="789" y="255"/>
      <point x="845" y="223"/>
      <point x="920" y="223" type="curve" smooth="yes"/>
      <point x="985" y="223"/>
      <point x="1030" y="248"/>
      <point x="1057" y="285" type="curve"/>
      <point x="1061" y="285" type="line"/>
      <point x="1061" y="0" type="line"/>
      <point x="1135" y="0" type="line"/>
      <point x="1135" y="637" type="line"/>
      <point x="1273" y="637" type="line"/>
      <point x="1273" y="698" type="line"/>
      <point x="-20" y="698" type="line"/>
      <point x="-20" y="637" type="line"/>
      <point x="93" y="637" type="line"/>
      <point x="93" y="426" type="line" smooth="yes"/>
      <point x="93" y="287"/>
      <point x="172" y="223"/>
      <point x="273" y="223" type="curve" smooth="yes"/>
      <point x="338" y="223"/>
      <point x="383" y="248"/>
      <point x="410" y="285" type="curve"/>
      <point x="414" y="285" type="line"/>
    </contour>
    <contour>
      <point x="740" y="452" type="line"/>
      <point x="736" y="450" type="line"/>
      <point x="707" y="472"/>
      <point x="679" y="484"/>
      <point x="636" y="484" type="curve" smooth="yes"/>
      <point x="568" y="484"/>
      <point x="519" y="447"/>
      <point x="492" y="402" type="curve"/>
      <point x="488" y="402" type="line"/>
      <point x="488" y="637" type="line"/>
      <point x="740" y="637" type="line"/>
    </contour>
    <contour>
      <point x="814" y="419" type="curve" smooth="yes"/>
      <point x="814" y="637" type="line"/>
      <point x="1061" y="637" type="line"/>
      <point x="1061" y="404" type="line" smooth="yes"/>
      <point x="1061" y="335"/>
      <point x="1011" y="289"/>
      <point x="928" y="289" type="curve" smooth="yes"/>
      <point x="853" y="289"/>
      <point x="814" y="327"/>
    </contour>
    <contour>
      <point x="167" y="419" type="curve" smooth="yes"/>
      <point x="167" y="637" type="line"/>
      <point x="414" y="637" type="line"/>
      <point x="414" y="404" type="line" smooth="yes"/>
      <point x="414" y="335"/>
      <point x="365" y="289"/>
      <point x="281" y="289" type="curve" smooth="yes"/>
      <point x="206" y="289"/>
      <point x="167" y="327"/>
    </contour>
    <contour>
      <point x="1135.0" y="0.0" type="move" name="bottom_deva"/>
    </contour>
    <contour>
      <point x="945.0" y="688.0" type="move" name="center_deva"/>
    </contour>
    <contour>
      <point x="1135.0" y="688.0" type="move" name="top_deva"/>
    </contour>
  </outline>
</glyph>
<glyph name="dvP_TA" format="1">
  <advance width="950"/>
  <outline>
    <contour>
      <point x="551" y="-6" type="curve" name="hr00"/>
      <point x="591" y="48" type="line"/>
      <point x="501" y="102"/>
      <point x="474" y="155"/>
      <point x="474" y="233" type="curve" smooth="yes"/>
      <point x="474" y="262" type="line" smooth="yes"/>
      <point x="474" y="354"/>
      <point x="515" y="407"/>
      <point x="601" y="407" type="curve" smooth="yes"/>
      <point x="758" y="407" type="line"/>
      <point x="758" y="0" type="line"/>
      <point x="832" y="0" type="line"/>
      <point x="832" y="637" type="line"/>
      <point x="970" y="637" type="line"/>
      <point x="970" y="698" type="line"/>
      <point x="-20" y="698" type="line"/>
      <point x="-20" y="637" type="line"/>
      <point x="93" y="637" type="line"/>
      <point x="93" y="426" type="line" smooth="yes"/>
      <point x="93" y="287"/>
      <point x="170" y="223"/>
      <point x="273" y="223" type="curve" smooth="yes"/>
      <point x="328" y="223"/>
      <point x="369" y="240"/>
      <point x="399" y="263" type="curve"/>
      <point x="401" y="261" type="line"/>
      <point x="401" y="244" type="line" smooth="yes"/>
      <point x="401" y="126"/>
      <point x="465" y="42"/>
    </contour>
    <contour>
      <point x="600" y="473" type="line" smooth="yes"/>
      <point x="514" y="473"/>
      <point x="457" y="439"/>
      <point x="424" y="372" type="curve" smooth="yes"/>
      <point x="396" y="315"/>
      <point x="348" y="289"/>
      <point x="281" y="289" type="curve" smooth="yes"/>
      <point x="206" y="289"/>
      <point x="167" y="327"/>
      <point x="167" y="419" type="curve" smooth="yes"/>
      <point x="167" y="637" type="line"/>
      <point x="758" y="637" type="line"/>
      <point x="758" y="473" type="line"/>
    </contour>
    <contour>
      <point x="832.0" y="0.0" type="move" name="bottom_deva"/>
    </contour>
    <contour>
      <point x="636.0" y="688.0" type="move" name="center_deva"/>
    </contour>
    <contour>
      <point x="832.0" y="688.0" type="move" name="top_deva"/>
    </contour>
  </outline>
</glyph>
<glyph name="dvSHA_mvR" format="1">
  <advance width="766"/>
  <outline>
    <contour>
      <point x="83" y="213" type="line"/>
      <point x="326" y="363" type="line"/>
      <point x="574" y="319" type="line"/>
      <point x="574" y="6" type="line"/>
      <point x="573" y="6" type="line" smooth="yes"/>
      <point x="496" y="6"/>
      <point x="436" y="-46"/>
      <point x="436" y="-125" type="curve" smooth="yes"/>
      <point x="436" y="-212"/>
      <point x="499" y="-258"/>
      <point x="601" y="-258" type="curve" smooth="yes"/>
      <point x="687" y="-258" type="line"/>
      <point x="687" y="-203" type="line"/>
      <point x="601" y="-203" type="line" smooth="yes"/>
      <point x="537" y="-203"/>
      <point x="504" y="-177"/>
      <point x="504" y="-134" type="curve" smooth="yes"/>
      <point x="504" y="-119" type="line" smooth="yes"/>
      <point x="504" y="-78"/>
      <point x="530" y="-49"/>
      <point x="589" y="-49" type="curve" smooth="yes"/>
      <point x="648" y="-49" type="line"/>
      <point x="648" y="637" type="line"/>
      <point x="786" y="637" type="line"/>
      <point x="786" y="698" type="line"/>
      <point x="574" y="698" type="line"/>
      <point x="574" y="381" type="line"/>
      <point x="452" y="402" type="line"/>
      <point x="376" y="413" type="line"/>
      <point x="376" y="416" type="line"/>
      <point x="415" y="445"/>
      <point x="442" y="483"/>
      <point x="442" y="541" type="curve" smooth="yes" name="hr01"/>
      <point x="442" y="626"/>
      <point x="376" y="692"/>
      <point x="272" y="692" type="curve" smooth="yes"/>
      <point x="168" y="692"/>
      <point x="109" y="623"/>
      <point x="109" y="542" type="curve" smooth="yes"/>
      <point x="109" y="467"/>
      <point x="156" y="411"/>
      <point x="231" y="388" type="curve"/>
      <point x="232" y="385" type="line"/>
      <point x="208" y="372" type="line"/>
      <point x="44" y="274" type="line"/>
    </contour>
    <contour>
      <point x="180" y="538" type="curve" smooth="yes"/>
      <point x="180" y="549" type="line" smooth="yes"/>
      <point x="180" y="594"/>
      <point x="217" y="633"/>
      <point x="274" y="633" type="curve" smooth="yes"/>
      <point x="335" y="633"/>
      <point x="371" y="592"/>
      <point x="371" y="543" type="curve" smooth="yes"/>
      <point x="371" y="533" type="line" smooth="yes"/>
      <point x="371" y="497"/>
      <point x="352" y="458"/>
      <point x="298" y="425" type="curve"/>
      <point x="218" y="439"/>
      <point x="180" y="489"/>
    </contour>
    <contour>
      <point x="434.0" y="689.0" type="move" name="center_deva"/>
    </contour>
    <contour>
      <point x="648.0" y="688.0" type="move" name="top_deva"/>
    </contour>
  </outline>
</glyph>
<glyph name="dvSH" format="1">
  <advance width="491"/>
  <outline>
    <contour>
      <point x="368" y="0" type="line" name="hr00"/>
      <point x="416" y="47" type="line"/>
      <point x="239" y="224" type="line"/>
      <point x="174" y="291" type="line"/>
      <point x="176" y="293" type="line"/>
      <point x="222" y="293" type="line" smooth="yes"/>
      <point x="357" y="293"/>
      <point x="453" y="350"/>
      <point x="453" y="502" type="curve" smooth="yes"/>
      <point x="453" y="618"/>
      <point x="385" y="694"/>
      <point x="270" y="694" type="curve" smooth="yes"/>
      <point x="177" y="694"/>
      <point x="111" y="639"/>
      <point x="85" y="551" type="curve"/>
      <point x="150" y="527" type="line"/>
      <point x="173" y="600"/>
      <point x="214" y="630"/>
      <point x="272" y="630" type="curve" smooth="yes"/>
      <point x="335" y="630"/>
      <point x="379" y="590"/>
      <point x="379" y="518" type="curve" smooth="yes"/>
      <point x="379" y="490" type="line" smooth="yes"/>
      <point x="379" y="397"/>
      <point x="326" y="354"/>
      <point x="207" y="354" type="curve" smooth="yes"/>
      <point x="81" y="354" type="line"/>
      <point x="81" y="296" type="line"/>
    </contour>
  </outline>
</glyph>
<glyph name="dvSH_MA" format="1">
  <advance width="1109"/>
  <outline>
    <contour>
      <point x="635" y="221" type="curve" smooth="yes"/>
      <point x="652" y="221"/>
      <point x="667" y="224"/>
      <point x="677" y="229" type="curve"/>
      <point x="677" y="312" type="line"/>
      <point x="917" y="312" type="line"/>
      <point x="917" y="0" type="line"/>
      <point x="991" y="0" type="line"/>
      <point x="991" y="637" type="line"/>
      <point x="1129" y="637" type="line"/>
      <point x="1129" y="698" type="line"/>
      <point x="512" y="698" type="line"/>
      <point x="512" y="637" type="line"/>
      <point x="603" y="637" type="line"/>
      <point x="603" y="370" type="line"/>
      <point x="573" y="360"/>
      <point x="557" y="335"/>
      <point x="557" y="298" type="curve" smooth="yes"/>
      <point x="557" y="250"/>
      <point x="584" y="221"/>
    </contour>
    <contour>
      <point x="368" y="0" type="line"/>
      <point x="416" y="47" type="line"/>
      <point x="239" y="224" type="line"/>
      <point x="174" y="291" type="line"/>
      <point x="176" y="293" type="line" name="hr01"/>
      <point x="222" y="293" type="line" smooth="yes"/>
      <point x="357" y="293"/>
      <point x="453" y="350"/>
      <point x="453" y="502" type="curve" smooth="yes"/>
      <point x="453" y="618"/>
      <point x="385" y="694"/>
      <point x="270" y="694" type="curve" smooth="yes"/>
      <point x="177" y="694"/>
      <point x="111" y="639"/>
      <point x="85" y="551" type="curve"/>
      <point x="150" y="527" type="line"/>
      <point x="173" y="600"/>
      <point x="214" y="630"/>
      <point x="272" y="630" type="curve" smooth="yes"/>
      <point x="335" y="630"/>
      <point x="379" y="590"/>
      <point x="379" y="518" type="curve" smooth="yes"/>
      <point x="379" y="490" type="line" smooth="yes"/>
      <point x="379" y="397"/>
      <point x="326" y="354"/>
      <point x="207" y="354" type="curve" smooth="yes"/>
      <point x="81" y="354" type="line"/>
      <point x="81" y="296" type="line"/>
    </contour>
    <contour>
      <point x="917" y="637" type="line"/>
      <point x="917" y="375" type="line" name="hr02"/>
      <point x="677" y="375" type="line"/>
      <point x="677" y="637" type="line"/>
    </contour>
    <contour>
      <point x="991.0" y="0.0" type="move" name="bottom_deva"/>
    </contour>
    <contour>
      <point x="799.0" y="688.0" type="move" name="center_deva"/>
    </contour>
    <contour>
      <point x="991.0" y="688.0" type="move" name="top_deva"/>
    </contour>
  </outline>
</glyph>
<glyph name="dvSH_TTA" format="1">
  <advance width="1030"/>
  <outline>
    <contour>
      <point x="783" y="14" type="curve" smooth="yes" name="hr00"/>
      <point x="888" y="14"/>
      <point x="953" y="53"/>
      <point x="993" y="108" type="curve"/>
      <point x="947" y="158" type="line"/>
      <point x="906" y="105"/>
      <point x="857" y="79"/>
      <point x="783" y="79" type="curve" smooth="yes"/>
      <point x="678" y="79"/>
      <point x="621" y="141"/>
      <point x="621" y="230" type="curve" smooth="yes"/>
      <point x="621" y="265" type="line" smooth="yes"/>
      <point x="621" y="356"/>
      <point x="674" y="415"/>
      <point x="795" y="415" type="curve" smooth="yes"/>
      <point x="923" y="415" type="line"/>
      <point x="923" y="637" type="line"/>
      <point x="1050" y="637" type="line"/>
      <point x="1050" y="698" type="line"/>
      <point x="538" y="698" type="line"/>
      <point x="538" y="637" type="line"/>
      <point x="850" y="637" type="line"/>
      <point x="850" y="478" type="line"/>
      <point x="794" y="478" type="line" smooth="yes"/>
      <point x="634" y="478"/>
      <point x="539" y="391"/>
      <point x="539" y="247" type="curve" smooth="yes"/>
      <point x="539" y="104"/>
      <point x="640" y="14"/>
    </contour>
    <contour>
      <point x="368" y="0" type="line"/>
      <point x="416" y="47" type="line"/>
      <point x="239" y="224" type="line"/>
      <point x="174" y="291" type="line"/>
      <point x="176" y="293" type="line"/>
      <point x="222" y="293" type="line" smooth="yes"/>
      <point x="357" y="293"/>
      <point x="453" y="350"/>
      <point x="453" y="502" type="curve" smooth="yes"/>
      <point x="453" y="618"/>
      <point x="385" y="694"/>
      <point x="270" y="694" type="curve" smooth="yes"/>
      <point x="177" y="694"/>
      <point x="111" y="639"/>
      <point x="85" y="551" type="curve"/>
      <point x="150" y="527" type="line"/>
      <point x="173" y="600"/>
      <point x="214" y="630"/>
      <point x="272" y="630" type="curve" smooth="yes"/>
      <point x="335" y="630"/>
      <point x="379" y="590"/>
      <point x="379" y="518" type="curve" smooth="yes"/>
      <point x="379" y="490" type="line" smooth="yes"/>
      <point x="379" y="397"/>
      <point x="326" y="354"/>
      <point x="207" y="354" type="curve" smooth="yes"/>
      <point x="81" y="354" type="line"/>
      <point x="81" y="296" type="line"/>
    </contour>
    <contour>
      <point x="830.0" y="16.0" type="move" name="bottom_deva"/>
    </contour>
    <contour>
      <point x="801.0" y="688.0" type="move" name="center_deva"/>
    </contour>
    <contour>
      <point x="924.0" y="688.0" type="move" name="top_deva"/>
    </contour>
  </outline>
</glyph>
<glyph name="dvSS_P_RA" format="1">
  <advance width="937"/>
  <outline>
    <contour>
      <point x="462" y="-50" type="line"/>
      <point x="662" y="164" type="line"/>
      <point x="741" y="254" type="line"/>
      <point x="745" y="254" type="line"/>
      <point x="745" y="0" type="line"/>
      <point x="819" y="0" type="line"/>
      <point x="819" y="637" type="line"/>
      <point x="957" y="637" type="line"/>
      <point x="957" y="698" type="line"/>
      <point x="-20" y="698" type="line"/>
      <point x="-20" y="637" type="line"/>
      <point x="98" y="637" type="line"/>
      <point x="98" y="434" type="line" smooth="yes"/>
      <point x="98" y="285"/>
      <point x="176" y="223"/>
      <point x="282" y="223" type="curve" smooth="yes"/>
      <point x="359" y="223"/>
      <point x="413" y="250"/>
      <point x="454" y="299" type="curve"/>
      <point x="459" y="299" type="line"/>
      <point x="489" y="252"/>
      <point x="538" y="226"/>
      <point x="606" y="226" type="curve" smooth="yes" name="hr01"/>
      <point x="615" y="226"/>
      <point x="618" y="226"/>
      <point x="632" y="227" type="curve"/>
      <point x="633" y="222" type="line"/>
      <point x="559" y="154" type="line"/>
      <point x="406" y="-1" type="line"/>
    </contour>
    <contour>
      <point x="423" y="433" type="line" smooth="yes"/>
      <point x="423" y="405"/>
      <point x="427" y="379"/>
      <point x="432" y="359" type="curve"/>
      <point x="430" y="356"/>
      <point x="428" y="353"/>
      <point x="426" y="350" type="curve"/>
      <point x="422" y="350" type="line"/>
      <point x="399" y="387" type="line"/>
      <point x="253" y="586" type="line"/>
      <point x="212" y="636" type="line"/>
      <point x="212" y="637" type="line"/>
      <point x="423" y="637" type="line"/>
    </contour>
    <contour>
      <point x="497" y="419" type="curve" smooth="yes"/>
      <point x="497" y="637" type="line"/>
      <point x="745" y="637" type="line"/>
      <point x="745" y="404" type="line" smooth="yes"/>
      <point x="745" y="335"/>
      <point x="695" y="289"/>
      <point x="611" y="289" type="curve" smooth="yes"/>
      <point x="536" y="289"/>
      <point x="497" y="327"/>
    </contour>
    <contour>
      <point x="167" y="421" type="curve" smooth="yes"/>
      <point x="167" y="621" type="line"/>
      <point x="169" y="621" type="line"/>
      <point x="209" y="558" type="line"/>
      <point x="360" y="350" type="line"/>
      <point x="390" y="316" type="line"/>
      <point x="390" y="314" type="line"/>
      <point x="365" y="297"/>
      <point x="331" y="287"/>
      <point x="290" y="287" type="curve" smooth="yes" name="hr02"/>
      <point x="212" y="287"/>
      <point x="167" y="326"/>
    </contour>
    <contour>
      <point x="819.0" y="0.0" type="move" name="bottom_deva"/>
    </contour>
    <contour>
      <point x="629.0" y="688.0" type="move" name="center_deva"/>
    </contour>
    <contour>
      <point x="819.0" y="688.0" type="move" name="top_deva"/>
    </contour>
  </outline>
</glyph>
<glyph name="dvS_PHA" format="1">
  <advance width="1295"/>
  <outline>
    <contour>
      <point x="258" y="-6" type="line" name="hr00"/>
      <point x="316" y="35" type="line"/>
      <point x="186" y="244" type="line"/>
      <point x="149" y="299" type="line"/>
      <point x="149" y="301" type="line"/>
      <point x="543" y="301" type="line"/>
      <point x="575" y="248"/>
      <point x="630" y="223"/>
      <point x="693" y="223" type="curve" smooth="yes"/>
      <point x="758" y="223"/>
      <point x="803" y="248"/>
      <point x="830" y="285" type="curve"/>
      <point x="834" y="285" type="line"/>
      <point x="834" y="0" type="line"/>
      <point x="908" y="0" type="line"/>
      <point x="908" y="250" type="line" smooth="yes"/>
      <point x="908" y="352"/>
      <point x="981" y="421"/>
      <point x="1068" y="421" type="curve" smooth="yes"/>
      <point x="1149" y="421"/>
      <point x="1181" y="374"/>
      <point x="1181" y="317" type="curve" smooth="yes"/>
      <point x="1181" y="303" type="line" smooth="yes"/>
      <point x="1181" y="238"/>
      <point x="1141" y="194"/>
      <point x="1051" y="174" type="curve"/>
      <point x="1077" y="107" type="line"/>
      <point x="1199" y="133"/>
      <point x="1252" y="212"/>
      <point x="1252" y="313" type="curve" smooth="yes"/>
      <point x="1252" y="411"/>
      <point x="1179" y="487"/>
      <point x="1079" y="487" type="curve" smooth="yes"/>
      <point x="996" y="487"/>
      <point x="943" y="444"/>
      <point x="912" y="395" type="curve"/>
      <point x="908" y="395" type="line"/>
      <point x="908" y="637" type="line"/>
      <point x="1315" y="637" type="line"/>
      <point x="1315" y="698" type="line"/>
      <point x="-20" y="698" type="line"/>
      <point x="-20" y="637" type="line"/>
      <point x="206" y="637" type="line"/>
      <point x="206" y="500" type="line" smooth="yes"/>
      <point x="206" y="418"/>
      <point x="161" y="373"/>
      <point x="92" y="373" type="curve" smooth="yes"/>
      <point x="65" y="373" type="line"/>
      <point x="65" y="306" type="line"/>
    </contour>
    <contour>
      <point x="513" y="426" type="line" smooth="yes"/>
      <point x="513" y="403"/>
      <point x="515" y="383"/>
      <point x="519" y="364" type="curve"/>
      <point x="289" y="364" type="line"/>
      <point x="214" y="361" type="line"/>
      <point x="214" y="364" type="line"/>
      <point x="263" y="397"/>
      <point x="280" y="439"/>
      <point x="280" y="509" type="curve" smooth="yes"/>
      <point x="280" y="637" type="line"/>
      <point x="513" y="637" type="line"/>
    </contour>
    <contour>
      <point x="587" y="419" type="curve" smooth="yes"/>
      <point x="587" y="637" type="line"/>
      <point x="834" y="637" type="line"/>
      <point x="834" y="404" type="line" smooth="yes"/>
      <point x="834" y="335"/>
      <point x="784" y="289"/>
      <point x="701" y="289" type="curve" smooth="yes"/>
      <point x="626" y="289"/>
      <point x="587" y="327"/>
    </contour>
    <contour>
      <point x="908.0" y="0.0" type="move" name="bottom_deva"/>
    </contour>
    <contour>
      <point x="866.0" y="688.0" type="move" name="center_deva"/>
    </contour>
    <contour>
      <point x="908.0" y="688.0" type="move" name="top_deva"/>
    </contour>
  </outline>
</glyph>
<glyph name="dvS_RA" format="1">
  <advance width="744"/>
  <outline>
    <contour>
      <point x="256" y="1" type="line" name="hr00"/>
      <point x="314" y="34" type="line"/>
      <point x="182" y="272" type="line"/>
      <point x="147" y="328" type="line"/>
      <point x="147" y="331" type="line"/>
      <point x="518" y="331" type="line"/>
      <point x="518" y="326" type="line"/>
      <point x="474" y="289" type="line"/>
      <point x="330" y="155" type="line"/>
      <point x="378" y="106" type="line"/>
      <point x="500" y="224" type="line"/>
      <point x="549" y="274" type="line"/>
      <point x="552" y="274" type="line"/>
      <point x="552" y="0" type="line"/>
      <point x="626" y="0" type="line"/>
      <point x="626" y="637" type="line"/>
      <point x="764" y="637" type="line"/>
      <point x="764" y="698" type="line"/>
      <point x="-20" y="698" type="line"/>
      <point x="-20" y="637" type="line"/>
      <point x="219" y="637" type="line"/>
      <point x="219" y="528" type="line" smooth="yes"/>
      <point x="219" y="447"/>
      <point x="177" y="402"/>
      <point x="99" y="402" type="curve" smooth="yes"/>
      <point x="64" y="402" type="line"/>
      <point x="64" y="344" type="line"/>
    </contour>
    <contour>
      <point x="228" y="393" type="line"/>
      <point x="277" y="426"/>
      <point x="293" y="472"/>
      <point x="293" y="552" type="curve" smooth="yes"/>
      <point x="293" y="637" type="line"/>
      <point x="552" y="637" type="line"/>
      <point x="552" y="391" type="line"/>
      <point x="289" y="391" type="line"/>
      <point x="228" y="389" type="line"/>
    </contour>
    <contour>
      <point x="626.0" y="0.0" type="move" name="bottom_deva"/>
    </contour>
    <contour>
      <point x="431.0" y="688.0" type="move" name="center_deva"/>
    </contour>
    <contour>
      <point x="626.0" y="688.0" type="move" name="top_deva"/>
    </contour>
  </outline>
</glyph>
<glyph name="dvS_TH" format="1">
  <advance width="854"/>
  <outline>
    <contour>
      <point x="258" y="-6" type="line"/>
      <point x="316" y="35" type="line"/>
      <point x="186" y="244" type="line"/>
      <point x="149" y="299" type="line"/>
      <point x="149" y="301" type="line"/>
      <point x="492" y="301" type="line"/>
      <point x="511" y="191"/>
      <point x="592" y="127"/>
      <point x="723" y="127" type="curve" smooth="yes"/>
      <point x="839" y="127"/>
      <point x="926" y="164"/>
      <point x="997" y="289" type="curve"/>
      <point x="956" y="347" type="line"/>
      <point x="900" y="230"/>
      <point x="827" y="193"/>
      <point x="725" y="193" type="curve" smooth="yes"/>
      <point x="617" y="193"/>
      <point x="561" y="241"/>
      <point x="561" y="333" type="curve" smooth="yes"/>
      <point x="561" y="384" type="line"/>
      <point x="624" y="384" type="line" smooth="yes"/>
      <point x="728" y="384"/>
      <point x="791" y="444"/>
      <point x="791" y="547" type="curve" smooth="yes"/>
      <point x="791" y="647"/>
      <point x="731" y="704"/>
      <point x="641" y="704" type="curve" smooth="yes"/>
      <point x="564" y="704"/>
      <point x="515" y="659"/>
      <point x="496" y="596" type="curve"/>
      <point x="556" y="573" type="line"/>
      <point x="572" y="621"/>
      <point x="596" y="646"/>
      <point x="644" y="646" type="curve" smooth="yes"/>
      <point x="693" y="646"/>
      <point x="721" y="613"/>
      <point x="721" y="557" type="curve" smooth="yes"/>
      <point x="721" y="537" type="line" smooth="yes"/>
      <point x="721" y="475"/>
      <point x="693" y="445"/>
      <point x="615" y="445" type="curve" smooth="yes"/>
      <point x="488" y="445" type="line"/>
      <point x="488" y="364" type="line"/>
      <point x="289" y="364" type="line"/>
      <point x="214" y="361" type="line"/>
      <point x="214" y="364" type="line"/>
      <point x="263" y="397"/>
      <point x="280" y="439"/>
      <point x="280" y="509" type="curve" smooth="yes"/>
      <point x="280" y="637" type="line" name="hr01"/>
      <point x="429" y="637" type="line"/>
      <point x="429" y="698" type="line"/>
      <point x="-20" y="698" type="line"/>
      <point x="-20" y="637" type="line"/>
      <point x="206" y="637" type="line"/>
      <point x="206" y="500" type="line" smooth="yes"/>
      <point x="206" y="418"/>
      <point x="161" y="373"/>
      <point x="92" y="373" type="curve" smooth="yes"/>
      <point x="65" y="373" type="line"/>
      <point x="65" y="306" type="line"/>
    </contour>
  </outline>
</glyph>
<glyph name="dvS_T_VA" format="1">
  <advance width="1363"/>
  <outline>
    <contour>
      <point x="258" y="-6" type="line"/>
      <point x="316" y="35" type="line"/>
      <point x="186" y="244" type="line"/>
      <point x="149" y="299" type="line"/>
      <point x="149" y="301" type="line"/>
      <point x="488" y="301" type="line"/>
      <point x="486" y="285"/>
      <point x="485" y="269"/>
      <point x="485" y="251" type="curve" smooth="yes"/>
      <point x="485" y="122"/>
      <point x="547" y="44"/>
      <point x="636" y="-6" type="curve"/>
      <point x="676" y="48" type="line"/>
      <point x="586" y="102"/>
      <point x="559" y="155"/>
      <point x="559" y="233" type="curve" smooth="yes"/>
      <point x="559" y="262" type="line" smooth="yes"/>
      <point x="559" y="354"/>
      <point x="600" y="407"/>
      <point x="686" y="407" type="curve" smooth="yes"/>
      <point x="814" y="407" type="line"/>
      <point x="816" y="404" type="line"/>
      <point x="802" y="378"/>
      <point x="794" y="348"/>
      <point x="794" y="312" type="curve" smooth="yes"/>
      <point x="794" y="191"/>
      <point x="882" y="113"/>
      <point x="1004" y="113" type="curve" smooth="yes"/>
      <point x="1079" y="113"/>
      <point x="1136" y="143"/>
      <point x="1167" y="178" type="curve"/>
      <point x="1171" y="178" type="line"/>
      <point x="1171" y="0" type="line"/>
      <point x="1245" y="0" type="line"/>
      <point x="1245" y="637" type="line"/>
      <point x="1383" y="637" type="line"/>
      <point x="1383" y="698" type="line"/>
      <point x="-20" y="698" type="line"/>
      <point x="-20" y="637" type="line"/>
      <point x="206" y="637" type="line"/>
      <point x="206" y="500" type="line" smooth="yes"/>
      <point x="206" y="418"/>
      <point x="161" y="373"/>
      <point x="92" y="373" type="curve" smooth="yes"/>
      <point x="65" y="373" type="line"/>
      <point x="65" y="306" type="line"/>
    </contour>
    <contour>
      <point x="1171" y="446" type="line"/>
      <point x="1167" y="446" type="line"/>
      <point x="1129" y="481"/>
      <point x="1073" y="507"/>
      <point x="1000" y="507" type="curve" smooth="yes" name="hr01"/>
      <point x="952" y="507"/>
      <point x="909" y="495"/>
      <point x="875" y="473" type="curve" name="hr02"/>
      <point x="685" y="473" type="line" smooth="yes"/>
      <point x="597" y="473"/>
      <point x="535" y="436"/>
      <point x="505" y="364" type="curve"/>
      <point x="289" y="364" type="line"/>
      <point x="214" y="361" type="line"/>
      <point x="214" y="364" type="line"/>
      <point x="263" y="397"/>
      <point x="280" y="439"/>
      <point x="280" y="509" type="curve" smooth="yes"/>
      <point x="280" y="637" type="line"/>
      <point x="1171" y="637" type="line"/>
    </contour>
    <contour>
      <point x="1015" y="179" type="curve" smooth="yes"/>
      <point x="917" y="179"/>
      <point x="873" y="233"/>
      <point x="873" y="300" type="curve" smooth="yes"/>
      <point x="873" y="324" type="line" smooth="yes"/>
      <point x="873" y="388"/>
      <point x="920" y="443"/>
      <point x="1008" y="443" type="curve" smooth="yes" name="hr03"/>
      <point x="1101" y="443"/>
      <point x="1172" y="392"/>
      <point x="1172" y="342" type="curve" smooth="yes"/>
      <point x="1172" y="287" type="line" smooth="yes"/>
      <point x="1172" y="235"/>
      <point x="1108" y="179"/>
    </contour>
    <contour>
      <point x="1245.0" y="0.0" type="move" name="bottom_deva"/>
    </contour>
    <contour>
      <point x="1041.0" y="688.0" type="move" name="center_deva"/>
    </contour>
    <contour>
      <point x="1245.0" y="688.0" type="move" name="top_deva"/>
    </contour>
  </outline>
</glyph>
<glyph name="dvTT" format="1">
  <advance width="552"/>
  <outline>
    <component base="dvTTA"/>
    <component base="dvVirama" xOffset="469" yOffset="14"/>
    <contour>
      <point x="350.0" y="14.0" type="move" name="_bottom_deva"/>
    </contour>
    <contour>
      <point x="350.0" y="14.0" type="move" name="bottom_deva"/>
    </contour>
    <contour>
      <point x="353.0" y="688.0" type="move" name="center_deva"/>
    </contour>
    <contour>
      <point x="445.0" y="688.0" type="move" name="top_deva"/>
    </contour>
  </outline>
</glyph>
<glyph name="dvT_S" format="1">
  <advance width="771"/>
  <outline>
    <contour>
      <point x="622" y="-6" type="line" name="hr00"/>
      <point x="680" y="35" type="line"/>
      <point x="550" y="244" type="line"/>
      <point x="513" y="299" type="line"/>
      <point x="513" y="301" type="line"/>
      <point x="911" y="301" type="line"/>
      <point x="911" y="364" type="line"/>
      <point x="653" y="364" type="line"/>
      <point x="577" y="361" type="line"/>
      <point x="577" y="364" type="line"/>
      <point x="626" y="397"/>
      <point x="643" y="439"/>
      <point x="643" y="509" type="curve" smooth="yes"/>
      <point x="643" y="637" type="line"/>
      <point x="813" y="637" type="line"/>
      <point x="813" y="698" type="line"/>
      <point x="-20" y="698" type="line"/>
      <point x="-20" y="637" type="line"/>
      <point x="569" y="637" type="line"/>
      <point x="569" y="500" type="line" smooth="yes"/>
      <point x="569" y="421"/>
      <point x="528" y="377"/>
      <point x="464" y="373" type="curve"/>
      <point x="427" y="419"/>
      <point x="369" y="457"/>
      <point x="289" y="457" type="curve" smooth="yes"/>
      <point x="269" y="457" type="line" smooth="yes"/>
      <point x="150" y="457"/>
      <point x="67" y="383"/>
      <point x="67" y="251" type="curve" smooth="yes"/>
      <point x="67" y="123"/>
      <point x="129" y="44"/>
      <point x="218" y="-6" type="curve"/>
      <point x="258" y="48" type="line"/>
      <point x="168" y="102"/>
      <point x="141" y="156"/>
      <point x="141" y="232" type="curve" smooth="yes"/>
      <point x="141" y="261" type="line" smooth="yes"/>
      <point x="141" y="338"/>
      <point x="193" y="390"/>
      <point x="270" y="390" type="curve" smooth="yes"/>
      <point x="298" y="390" type="line" smooth="yes"/>
      <point x="357" y="390"/>
      <point x="395" y="362"/>
      <point x="425" y="313" type="curve" smooth="yes"/>
    </contour>
  </outline>
</glyph>
<glyph name="dvV_R" format="1">
  <advance width="357"/>
  <outline>
    <contour>
      <point x="-20" y="637" type="line" name="hr00"/>
      <point x="423" y="637" type="line"/>
      <point x="423" y="698" type="line"/>
      <point x="-20" y="698" type="line"/>
    </contour>
    <contour>
      <point x="100" y="-51" type="line"/>
      <point x="370" y="125" type="line"/>
      <point x="401" y="146" type="line" smooth="yes"/>
      <point x="456" y="183"/>
      <point x="487" y="238"/>
      <point x="487" y="311" type="curve" smooth="yes"/>
      <point x="487" y="431"/>
      <point x="397" y="506"/>
      <point x="272" y="506" type="curve" smooth="yes"/>
      <point x="147" y="506"/>
      <point x="55" y="434"/>
      <point x="55" y="312" type="curve" smooth="yes"/>
      <point x="55" y="189"/>
      <point x="143" y="118"/>
      <point x="243" y="118" type="curve" smooth="yes"/>
      <point x="248" y="118" type="line"/>
      <point x="248" y="114" type="line"/>
      <point x="151" y="64" type="line"/>
      <point x="59" y="7" type="line"/>
    </contour>
    <contour>
      <point x="271" y="177" type="curve"/>
      <point x="182" y="177"/>
      <point x="128" y="229"/>
      <point x="128" y="299" type="curve" smooth="yes"/>
      <point x="128" y="324" type="line" smooth="yes"/>
      <point x="128" y="394"/>
      <point x="182" y="446"/>
      <point x="271" y="446" type="curve"/>
      <point x="360" y="446"/>
      <point x="414" y="394"/>
      <point x="414" y="324" type="curve" smooth="yes"/>
      <point x="414" y="299" type="line" smooth="yes"/>
      <point x="414" y="229"/>
      <point x="360" y="177"/>
    </contour>
  </outline>
</glyph>
<glyph name="dvY_YA" format="1">
  <advance width="1056"/>
  <outline>
    <contour>
      <point x="864" y="0" type="line" name="hr00"/>
      <point x="938" y="0" type="line"/>
      <point x="938" y="637" type="line"/>
      <point x="1076" y="637" type="line"/>
      <point x="1076" y="698" type="line"/>
      <point x="-20" y="698" type="line"/>
      <point x="-20" y="637" type="line"/>
      <point x="244" y="637" type="line"/>
      <point x="244" y="523" type="line" smooth="yes"/>
      <point x="244" y="463"/>
      <point x="223" y="436"/>
      <point x="171" y="436" type="curve" smooth="yes"/>
      <point x="74" y="436" type="line"/>
      <point x="74" y="359" type="line" smooth="yes"/>
      <point x="74" y="217"/>
      <point x="163" y="134"/>
      <point x="301" y="134" type="curve" smooth="yes"/>
      <point x="394" y="134"/>
      <point x="450" y="158"/>
      <point x="498" y="199" type="curve"/>
      <point x="503" y="199" type="line"/>
      <point x="543" y="157"/>
      <point x="602" y="134"/>
      <point x="674" y="134" type="curve" smooth="yes"/>
      <point x="766" y="134"/>
      <point x="825" y="166"/>
      <point x="860" y="219" type="curve"/>
      <point x="864" y="219" type="line"/>
    </contour>
    <contour>
      <point x="306" y="203" type="curve" smooth="yes"/>
      <point x="208" y="203"/>
      <point x="148" y="241"/>
      <point x="148" y="338" type="curve" smooth="yes"/>
      <point x="148" y="376" type="line"/>
      <point x="180" y="376" type="line" smooth="yes"/>
      <point x="270" y="376"/>
      <point x="318" y="433"/>
      <point x="318" y="523" type="curve" smooth="yes"/>
      <point x="318" y="637" type="line"/>
      <point x="617" y="637" type="line"/>
      <point x="617" y="523" type="line" smooth="yes"/>
      <point x="617" y="463"/>
      <point x="596" y="436"/>
      <point x="544" y="436" type="curve" smooth="yes"/>
      <point x="447" y="436" type="line"/>
      <point x="447" y="359" type="line" smooth="yes"/>
      <point x="447" y="323"/>
      <point x="453" y="291"/>
      <point x="463" y="264" type="curve"/>
      <point x="421" y="222"/>
      <point x="373" y="203"/>
    </contour>
    <contour>
      <point x="679" y="203" type="curve" smooth="yes"/>
      <point x="581" y="203"/>
      <point x="521" y="241"/>
      <point x="521" y="338" type="curve" smooth="yes"/>
      <point x="521" y="376" type="line"/>
      <point x="553" y="376" type="line" smooth="yes"/>
      <point x="643" y="376"/>
      <point x="691" y="433"/>
      <point x="691" y="523" type="curve" smooth="yes"/>
      <point x="691" y="637" type="line"/>
      <point x="864" y="637" type="line"/>
      <point x="864" y="339" type="line" smooth="yes"/>
      <point x="864" y="262"/>
      <point x="795" y="203"/>
    </contour>
    <contour>
      <point x="938.0" y="0.0" type="move" name="bottom_deva"/>
    </contour>
    <contour>
      <point x="795.0" y="688.0" type="move" name="center_deva"/>
    </contour>
    <contour>
      <point x="938.0" y="688.0" type="move" name="top_deva"/>
    </contour>
  </outline>
</glyph>
<glyph name="dvmAU_Anusvara" format="1">
  <advance width="310"/>
  <outline>
    <component base="dvmAU"/>
    <component base="dvAnusvara" xOffset="439" yOffset="-10"/>
    <contour>
      <point x="153.0" y="688.0" type="move" name="center_deva"/>
    </contour>
    <contour>
      <point x="192.0" y="688.0" type="move" name="top_deva"/>
    </contour>
  </outline>
</glyph>
<glyph name="dvmEcandra_Anusvara" format="1">
  <advance width="0"/>
  <outline>
    <contour>
      <point x="-297" y="918" type="curve" smooth="yes" name="hr00"/>
      <point x="-266" y="918"/>
      <point x="-251" y="933"/>
      <point x="-251" y="959" type="curve" smooth="yes"/>
      <point x="-251" y="971" type="line" smooth="yes"/>
      <point x="-251" y="997"/>
      <point x="-266" y="1012"/>
      <point x="-297" y="1012" type="curve" smooth="yes"/>
      <point x="-328" y="1012"/>
      <point x="-343" y="997"/>
      <point x="-343" y="971" type="curve" smooth="yes"/>
      <point x="-343" y="959" type="line" smooth="yes"/>
      <point x="-343" y="933"/>
      <point x="-328" y="918"/>
    </contour>
    <contour>
      <point x="-297" y="774" type="curve"/>
      <point x="-192" y="774"/>
      <point x="-130" y="837"/>
      <point x="-103" y="928" type="curve"/>
      <point x="-160" y="947" type="line"/>
      <point x="-186" y="871"/>
      <point x="-222" y="833"/>
      <point x="-297" y="833" type="curve"/>
      <point x="-372" y="833"/>
      <point x="-408" y="871"/>
      <point x="-434" y="947" type="curve"/>
      <point x="-491" y="928" type="line"/>
      <point x="-464" y="837"/>
      <point x="-402" y="774"/>
    </contour>
    <contour>
      <point x="-297.0" y="688.0" type="move" name="_center_deva"/>
    </contour>
  </outline>
</glyph>
<glyph name="dvmII.03" format="1">
  <advance width="310"/>
  <outline>
    <contour>
      <point x="118" y="0" type="line" name="hr00"/>
      <point x="192" y="0" type="line"/>
      <point x="192" y="637" type="line"/>
      <point x="330" y="637" type="line"/>
      <point x="330" y="698" type="line"/>
      <point x="191" y="698" type="line"/>
      <point x="191" y="725" type="line" smooth="yes"/>
      <point x="191" y="840"/>
      <point x="120" y="936"/>
      <point x="-33" y="936" type="curve" smooth="yes"/>
      <point x="-143" y="936"/>
      <point x="-227" y="884"/>
      <point x="-299" y="805" type="curve"/>
      <point x="-254" y="761" type="line"/>
      <point x="-192" y="828"/>
      <point x="-123" y="872"/>
      <point x="-32" y="872" type="curve" smooth="yes"/>
      <point x="77" y="872"/>
      <point x="119" y="805"/>
      <point x="119" y="728" type="curve" smooth="yes"/>
      <point x="119" y="698" type="line"/>
      <point x="-20" y="698" type="line"/>
      <point x="-20" y="637" type="line"/>
      <point x="118" y="637" type="line"/>
    </contour>
    <contour>
      <point x="153.0" y="688.0" type="move" name="center_deva"/>
    </contour>
    <contour>
      <point x="192.0" y="688.0" type="move" name="mvII_deva"/>
    </contour>
    <contour>
      <point x="329.0" y="688.0" type="move" name="top_deva"/>
    </contour>
  </outline>
</glyph>
<glyph name="dvmI.16" format="1">
  <advance width="310"/>
  <outline>
    <contour>
      <point x="118" y="0" type="line" name="hr00"/>
      <point x="192" y="0" type="line"/>
      <point x="192" y="637" type="line"/>
      <point x="330" y="637" type="line"/>
      <point x="330" y="698" type="line"/>
      <point x="192" y="698" type="line"/>
      <point x="192" y="708" type="line" smooth="yes"/>
      <point x="192" y="779"/>
      <point x="289" y="884"/>
      <point x="645" y="884" type="curve" smooth="yes"/>
      <point x="901" y="884"/>
      <point x="1113" y="837"/>
      <point x="1329" y="762" type="curve"/>
      <point x="1346" y="817" type="line"/>
      <point x="1128" y="891"/>
      <point x="904" y="946"/>
      <point x="639" y="946" type="curve" smooth="yes"/>
      <point x="255" y="946"/>
      <point x="118" y="823"/>
      <point x="118" y="713" type="curve" smooth="yes"/>
      <point x="118" y="698" type="line"/>
      <point x="-20" y="698" type="line"/>
      <point x="-20" y="637" type="line"/>
      <point x="118" y="637" type="line"/>
    </contour>
    <contour>
      <point x="153.0" y="688.0" type="move" name="center_deva"/>
    </contour>
    <contour>
      <point x="192.0" y="688.0" type="move" name="top_deva"/>
    </contour>
  </outline>
</glyph>
<glyph name="dvmO_Candrabindu" format="1">
  <advance width="310"/>
  <outline>
    <contour>
      <point x="118" y="0" type="line"/>
      <point x="192" y="0" type="line"/>
      <point x="192" y="637" type="line"/>
      <point x="330" y="637" type="line"/>
      <point x="330" y="698" type="line"/>
      <point x="184" y="698" type="line"/>
      <point x="68" y="905" type="line" smooth="yes"/>
      <point x="49" y="940"/>
      <point x="30" y="955"/>
      <point x="-8" y="955" type="curve" smooth="yes"/>
      <point x="-155" y="955" type="line"/>
      <point x="-155" y="887" type="line"/>
      <point x="5" y="887" type="line"/>
      <point x="85" y="752" type="line"/>
      <point x="116" y="698" type="line"/>
      <point x="-20" y="698" type="line"/>
      <point x="-20" y="637" type="line"/>
      <point x="118" y="637" type="line"/>
    </contour>
    <contour>
      <point x="301" y="908" type="curve" smooth="yes" name="hr01"/>
      <point x="328" y="908"/>
      <point x="341" y="922"/>
      <point x="341" y="945" type="curve" smooth="yes"/>
      <point x="341" y="957" type="line" smooth="yes"/>
      <point x="341" y="980"/>
      <point x="328" y="994"/>
      <point x="301" y="994" type="curve" smooth="yes"/>
      <point x="274" y="994"/>
      <point x="261" y="980"/>
      <point x="261" y="957" type="curve" smooth="yes"/>
      <point x="261" y="945" type="line" smooth="yes"/>
      <point x="261" y="922"/>
      <point x="274" y="908"/>
    </contour>
    <contour>
      <point x="301" y="780" type="curve"/>
      <point x="378" y="780"/>
      <point x="422" y="822"/>
      <point x="452" y="900" type="curve"/>
      <point x="400" y="919" type="line"/>
      <point x="372" y="851"/>
      <point x="344" y="837"/>
      <point x="301" y="837" type="curve"/>
      <point x="258" y="837"/>
      <point x="230" y="851"/>
      <point x="202" y="919" type="curve"/>
      <point x="150" y="900" type="line"/>
      <point x="180" y="822"/>
      <point x="224" y="780"/>
    </contour>
    <contour>
      <point x="153.0" y="688.0" type="move" name="center_deva"/>
    </contour>
    <contour>
      <point x="192.0" y="688.0" type="move" name="top_deva"/>
    </contour>
  </outline>
</glyph>
<glyph name="hyphen.deva" format="1">
  <advance width="399"/>
  <outline>
    <contour>
      <point x="70" y="282" type="line" name="hr00"/>
      <point x="329" y="282" type="line"/>
      <point x="329" y="345" type="line"/>
      <point x="70" y="345" type="line"/>
    </contour>
  </outline>
</glyph>
